<?xml version="1.0" encoding="UTF-8" standalone="no"?>
<!-- Created with Inkscape (http://www.inkscape.org/) -->

<svg
   width="300.73361mm"
   height="293.35968mm"
   viewBox="0 0 300.73361 293.35968"
   version="1.1"
   id="svg5"
   xml:space="preserve"
   inkscape:version="1.2.2 (732a01da63, 2022-12-09)"
   sodipodi:docname="githublogo.svg"
   xmlns:inkscape="http://www.inkscape.org/namespaces/inkscape"
   xmlns:sodipodi="http://sodipodi.sourceforge.net/DTD/sodipodi-0.dtd"
   xmlns="http://www.w3.org/2000/svg"
   xmlns:svg="http://www.w3.org/2000/svg"><sodipodi:namedview
     id="namedview7"
     pagecolor="#ffffff"
     bordercolor="#000000"
     borderopacity="0.25"
     inkscape:showpageshadow="2"
     inkscape:pageopacity="0.0"
     inkscape:pagecheckerboard="0"
     inkscape:deskcolor="#d1d1d1"
     inkscape:document-units="mm"
     showgrid="false"
     inkscape:zoom="0.457453"
     inkscape:cx="123.50996"
     inkscape:cy="111.48686"
     inkscape:window-width="2560"
     inkscape:window-height="1377"
     inkscape:window-x="-8"
     inkscape:window-y="-8"
     inkscape:window-maximized="1"
     inkscape:current-layer="layer1" /><defs
     id="defs2" /><g
     inkscape:label="Layer 1"
     inkscape:groupmode="layer"
     id="layer1"
     transform="translate(52.587581,15.832726)"><path
       style="fill:#1a1c20;stroke:#1a1c20;stroke-width:1.38523;stroke-linecap:round;stroke-linejoin:bevel"
       d="m 97.297235,-15.11818 c -25.1083,-0.190751 -50.12098,6.3146609 -71.98543,18.6438909 -42.06839,22.7251591 -71.50944,66.9644991 -76.33884,114.5183491 -3.68775,34.57422 4.38059,70.57921 24.19331,99.34078 16.50752,24.40094 39.73315,44.5772 67.26089,55.50041 5.47898,1.94278 12.35443,6.1762 17.91955,2.2401 3.09179,-3.42093 1.61043,-8.74448 2.14972,-12.92214 -0.0312,-6.76836 0.13048,-13.66026 -0.0768,-20.35074 -6.76524,1.54658 -13.90905,1.14562 -20.83085,1.10367 -11.41918,-0.16347 -24.10912,-5.34645 -28.71923,-16.5246 -4.0730697,-9.58296 -9.2247597,-19.54342 -18.5545897,-24.96878 -2.04382,-1.67864 -5.9015203,-4.50732 -4.1198603,-7.50091 3.3973203,-2.10549 7.8825703,-0.6573 11.55186035,-0.0745 9.16302995,2.59001 15.55639965,10.34731 20.46091965,18.08811 4.94286,7.65464 13.69103,13.17096 23.02739,12.31354 6.0374,0.0482 12.07235,-1.17377 17.58652,-3.6051 0.85404,-7.29761 3.96373,-14.39944 8.92315,-19.70457 -18.38984,-2.5619 -38.04029,-7.48452 -51.05704,-21.67809 C 6.3421253,165.28067 1.8114053,145.95564 2.3247653,127.6274 c -0.23712,-8.84083 0.74807,-17.82463 4.77882,-25.81418 2.47291,-5.603973 6.0397597,-10.64077 9.9790797,-15.288332 -2.08788,-6.696699 -3.43499,-13.625369 -2.56771,-20.661402 0.72983,-6.530726 1.02608,-13.717997 4.72534,-19.347608 4.80934,-1.318549 10.02735,0.6292 14.69807,1.949521 9.44063,3.094209 18.27077,7.803391 26.51855,13.287272 20.3979,-5.648129 42.069665,-6.117275 62.883405,-2.655822 4.10769,0.732883 8.15772,1.749206 12.2353,2.597082 10.39141,-6.818554 21.61217,-13.142489 33.9405,-15.463856 2.32546,0.01741 5.55826,-0.820473 7.25074,0.363167 5.16978,12.455805 6.57265,26.843431 1.81587,39.643584 9.24713,10.644737 14.91199,24.332484 15.12171,38.486284 0.15747,18.27196 -2.99148,37.86761 -14.79975,52.45098 -11.99524,14.32959 -30.79236,20.51588 -48.72833,23.11425 -2.85249,0.24354 -5.85139,0.52343 -2.38633,2.98983 5.21838,6.53985 7.64299,14.94949 7.22872,23.26552 0.5278,15.62386 0.54534,31.27137 0.8551,46.89173 2.36148,3.11018 6.43813,4.18346 10.05619,2.81962 46.93448,-15.02382 84.12666,-55.60768 96.71708,-103.05151 5.42594,-19.4653 5.72828,-40.01498 3.51274,-59.98376 C 240.26739,69.472673 213.52159,29.357088 175.81846,6.5418349 152.43003,-7.9406881 124.8119,-15.605965 97.297235,-15.11818 Z"
       id="path425" /></g></svg>
