<?xml version="1.0" encoding="UTF-8" standalone="no"?>
<!-- Created with Inkscape (http://www.inkscape.org/) -->

<svg
   width="260.19043mm"
   height="259.36371mm"
   viewBox="0 0 260.19043 259.36367"
   version="1.1"
   id="svg5"
   xml:space="preserve"
   inkscape:version="1.2.2 (732a01da63, 2022-12-09)"
   sodipodi:docname="instagramlogo.svg"
   xmlns:inkscape="http://www.inkscape.org/namespaces/inkscape"
   xmlns:sodipodi="http://sodipodi.sourceforge.net/DTD/sodipodi-0.dtd"
   xmlns="http://www.w3.org/2000/svg"
   xmlns:svg="http://www.w3.org/2000/svg"><sodipodi:namedview
     id="namedview7"
     pagecolor="#ffffff"
     bordercolor="#000000"
     borderopacity="0.25"
     inkscape:showpageshadow="2"
     inkscape:pageopacity="0.0"
     inkscape:pagecheckerboard="0"
     inkscape:deskcolor="#d1d1d1"
     inkscape:document-units="mm"
     showgrid="false"
     inkscape:zoom="0.914906"
     inkscape:cx="415.88972"
     inkscape:cy="484.20275"
     inkscape:window-width="2560"
     inkscape:window-height="1377"
     inkscape:window-x="-8"
     inkscape:window-y="-8"
     inkscape:window-maximized="1"
     inkscape:current-layer="layer1" /><defs
     id="defs2" /><g
     inkscape:label="Layer 1"
     inkscape:groupmode="layer"
     id="layer1"
     transform="translate(29.588881,-34.531808)"><path
       id="path3924"
       style="fill:#1a1c20;fill-opacity:1;stroke:#1a1c20;stroke-width:2.61776;stroke-linecap:round;stroke-linejoin:bevel;stroke-opacity:1"
       transform="matrix(0.26458333,0,0,0.26458333,-30.123986,34.003283)"
       d="m 492.66929,294.87319 c -33.35905,-0.4134 -66.57857,8.13954 -95.60942,24.54311 -53.46685,28.94614 -91.80597,84.04326 -99.60301,144.41685 -5.8314,44.61201 1.88212,91.70485 26.00855,130.12765 34.64269,58.21969 100.54537,96.87362 168.59547,96.15449 59.83181,0.60628 119.35985,-27.21874 156.20187,-74.57245 21.73935,-27.75841 37.04737,-61.26975 41.33232,-96.38953 0.10361,-22.87408 1.89893,-46.1054 -2.31476,-68.72282 -12.5126,-54.47506 -47.7608,-103.86115 -97.0963,-130.75327 -29.65167,-16.35179 -63.57242,-25.46039 -97.51472,-24.80403 z M 461.53989,3.3238558 C 393.97796,3.7353572 326.38142,2.9054912 258.84592,5.0133137 210.9669,7.5001198 161.25349,12.383186 118.35232,35.527044 88.289581,53.383828 61.968345,78.037676 42.727665,107.28348 16.473363,147.88015 9.200896,197.25583 8.081816,244.70595 2.69224,390.28782 2.726336,536.01057 4.125742,681.66534 c 1.773771,60.55005 4.7190111,123.24661 30.494099,179.15082 26.361441,56.78902 83.417609,95.04255 143.744119,107.40305 59.32862,11.92476 120.22828,11.06707 180.46032,12.35656 116.82164,1.13951 233.66111,-0.37355 350.45517,-2.90675 41.13743,-1.13234 83.06665,-2.64187 122.24316,-16.57962 46.12514,-14.74852 88.13882,-44.93583 112.21975,-87.51307 23.54495,-40.08079 32.26173,-86.79546 34.75592,-132.68982 5.96581,-92.82748 5.16389,-185.91464 5.61225,-278.88549 -0.4881,-79.69879 0.0572,-159.60001 -7.34737,-239.03157 C 972.00312,176.37397 961.73268,127.85776 931.71499,90.482741 898.55951,47.690473 847.91005,20.580865 794.89966,11.839452 734.9058,0.96701731 673.67307,4.5858371 613.03686,3.4809161 562.53805,3.3181366 512.03893,3.2787027 461.53989,3.3238558 Z M 812.3273,98.319526 c 39.45537,-0.451559 75.4977,36.334324 72.70641,76.015324 1.86543,22.54379 -10.95951,43.86579 -27.98819,57.67411 -20.11768,16.36011 -49.00432,20.78756 -72.94217,10.58555 -27.03259,-9.86884 -46.50888,-37.00308 -46.39949,-65.82174 -0.6144,-16.86075 3.11407,-34.19184 13.76507,-47.67182 C 765.45222,110.0368 788.663,98.121944 812.3273,98.319526 Z M 494.59273,185.54032 c 105.20655,-1.19691 207.6862,58.23218 261.6424,148.07212 30.50686,50.13331 45.99901,109.1028 43.83786,167.7729 -1.51769,107.77459 -66.61438,211.11502 -161.70481,261.24637 -36.11962,19.38081 -76.26098,31.82463 -117.15667,35.19675 -30.30952,1.60641 -61.0573,2.49351 -90.74048,-4.91154 -90.12605,-19.05525 -170.22976,-80.30969 -211.57587,-162.72723 -45.28152,-88.34585 -43.52215,-199.01297 5.14612,-285.6082 46.46605,-84.77864 134.7692,-145.55814 230.95691,-156.80476 13.13276,-1.55447 26.36228,-2.2224 39.59454,-2.23641 z" /></g></svg>
