<?xml version="1.0" encoding="UTF-8" standalone="no"?>
<!-- Created with Inkscape (http://www.inkscape.org/) -->

<svg
   width="141.3047mm"
   height="95.164993mm"
   viewBox="0 0 141.3047 95.164989"
   version="1.1"
   id="svg316"
   inkscape:version="1.2.2 (732a01da63, 2022-12-09)"
   sodipodi:docname="logo.svg"
   xmlns:inkscape="http://www.inkscape.org/namespaces/inkscape"
   xmlns:sodipodi="http://sodipodi.sourceforge.net/DTD/sodipodi-0.dtd"
   xmlns="http://www.w3.org/2000/svg"
   xmlns:svg="http://www.w3.org/2000/svg">
  <sodipodi:namedview
     id="namedview318"
     pagecolor="#000000"
     bordercolor="#000000"
     borderopacity="0.25"
     inkscape:showpageshadow="2"
     inkscape:pageopacity="0"
     inkscape:pagecheckerboard="true"
     inkscape:deskcolor="#d1d1d1"
     inkscape:document-units="mm"
     showgrid="false"
     inkscape:zoom="2"
     inkscape:cx="194.25"
     inkscape:cy="145"
     inkscape:window-width="2560"
     inkscape:window-height="1377"
     inkscape:window-x="-8"
     inkscape:window-y="-8"
     inkscape:window-maximized="1"
     inkscape:current-layer="layer2" />
  <defs
     id="defs313">
    <inkscape:path-effect
       effect="bspline"
       id="path-effect3162"
       is_visible="true"
       lpeversion="1"
       weight="33.333333"
       steps="2"
       helper_size="0"
       apply_no_weight="true"
       apply_with_weight="true"
       only_selected="false" />
    <inkscape:path-effect
       effect="bspline"
       id="path-effect3103"
       is_visible="true"
       lpeversion="1"
       weight="33.333333"
       steps="2"
       helper_size="0"
       apply_no_weight="true"
       apply_with_weight="true"
       only_selected="false" />
    <clipPath
       clipPathUnits="userSpaceOnUse"
       id="clipPath817">
      <rect
         style="fill:#ffffff;fill-opacity:0.270195;stroke-width:2.78222;stroke-linejoin:bevel"
         id="rect819"
         width="60.579159"
         height="21.187775"
         x="-111.5311"
         y="215.25786"
         transform="matrix(0.86095877,-0.50867474,0.58518117,0.81090258,0,0)" />
    </clipPath>
  </defs>
  <g
     inkscape:label="Layer 1"
     inkscape:groupmode="layer"
     id="layer1"
     transform="translate(-51.376227,-23.824177)">
    <g
       id="g19731"
       style="display:none;fill:#ffffff;fill-opacity:1"
       transform="matrix(2.8656687,0,0,2.8656687,-60.162981,-552.66524)">
      <path
         style="color:#000000;mix-blend-mode:normal;fill:#ffffff;fill-opacity:1;fill-rule:nonzero;stroke:none;stroke-width:1.00012;stroke-linejoin:bevel;stroke-dasharray:none"
         d="m 97.142118,221.12866 c -1.338958,1.275 -2.516076,2.40841 -3.488281,3.53321 -0.972205,1.12479 -1.720102,2.22164 -2.283203,3.12695 -0.563099,0.9053 -0.958415,1.63103 -1.142578,2.27344 -0.184141,0.64232 -0.13187,1.24895 0.226562,1.66211 0.358201,0.41283 0.97176,0.55507 1.722656,0.43945 0.750788,-0.11562 1.723012,-0.45568 2.91211,-1.01758 1.189092,-0.56189 2.585211,-1.34779 4.234375,-2.4043 1.649161,-1.05649 3.535701,-2.37128 5.158201,-3.23437 1.62252,-0.8631 2.32756,-1.15437 3.36089,-1.389 1.03336,-0.2346 1.69072,-0.28033 2.16205,-0.20111 0.47142,0.0792 0.78754,0.32742 0.88074,0.48422 0.0934,0.15706 0.21744,0.6414 0.0289,1.30607 -0.18983,0.66938 -0.35947,1.13275 -0.93457,1.95607 -0.5751,0.82334 -1.1912,1.545 -1.67578,1.99414 -0.48457,0.44913 -0.82533,0.57086 -0.91406,0.56641 -0.0221,-0.001 -0.0611,-0.009 -0.10938,-0.0234 -0.0482,-0.0146 -0.0759,-0.0367 -0.21484,-0.0606 -0.0347,-0.006 -0.0791,-0.0137 -0.15625,-0.006 -0.0772,0.008 -0.2096,0.0383 -0.32031,0.15039 -0.11072,0.11213 -0.14808,0.27027 -0.14844,0.36328 -3.7e-4,0.093 0.0172,0.14623 0.0312,0.1875 0.0563,0.1651 0.1066,0.21464 0.1875,0.33594 0.32362,0.48524 1.17229,1.64122 1.91992,2.45117 0.7476,0.80992 1.39448,1.24836 2.0625,1.52539 0.66798,0.27703 1.38226,0.4187 2.08203,0.38868 0.69973,-0.0301 1.44274,-0.25403 2.03515,-0.85157 0.59239,-0.59753 0.99129,-1.45886 1.69922,-3.02734 0.70791,-1.56849 1.72187,-3.87623 2.58984,-5.81641 0.53445,-1.19466 0.97672,-1.94373 1.44141,-2.83008 -0.0167,1.26134 0.15748,2.1896 0.30859,2.9043 0.1573,0.744 0.29497,1.40985 0.64258,2.2832 0.3476,0.87332 0.89441,1.94435 1.5293,2.82227 0.63486,0.87788 1.32982,1.52236 1.87109,1.9082 0.54121,0.38585 1.0135,0.53934 1.43946,0.48828 0.21286,-0.0255 0.49608,-0.13393 0.71875,-0.34375 0.22266,-0.20981 0.41769,-0.49663 0.6582,-0.93945 0.481,-0.88561 1.13216,-2.40838 1.75586,-3.91211 0.53143,-1.28125 1.04841,-2.48427 1.59961,-3.62109 -0.10427,0.6305 -0.24047,1.23814 -0.27735,1.90234 -0.0614,1.10535 -0.0181,2.22099 0.14063,3.30078 0.15869,1.07977 0.43134,2.11582 0.77344,3.01758 0.34208,0.90175 0.73919,1.64898 1.0957,2.11914 0.17825,0.2351 0.35105,0.40459 0.54492,0.52149 0.19387,0.1169 0.414,0.16566 0.58789,0.16211 h 0.002 c 0.17441,-0.004 0.39489,-0.0668 0.56836,-0.19336 0.17347,-0.12655 0.30716,-0.29234 0.44336,-0.50782 0.27242,-0.43093 0.58201,-1.11884 0.87696,-2.19726 0.24098,-0.88118 0.44245,-2.07827 0.62109,-3.25391 0.19516,0.33647 0.28668,0.70347 0.56445,1.00586 0.63659,0.69302 1.46365,1.22927 2.20899,1.5625 0.74526,0.3332 1.40933,0.44801 2.25976,0.53906 0.8501,0.0907 1.96646,0.16877 3.42578,0.0859 1.45925,-0.0828 3.25446,-0.32441 5.02344,-0.73633 1.76898,-0.41192 3.49945,-0.99227 5.50391,-1.79492 1.86395,-0.74639 4.01831,-1.74454 6.27148,-2.95117 1.34355,0.0253 2.52161,0.0681 4.40235,0.0352 2.92206,-0.0513 6.67305,-0.18687 9.75195,-0.28907 3.0789,-0.1022 5.48803,-0.16993 7.4375,-0.21679 0.55254,-0.0133 0.70696,6.8e-4 1.17969,-0.008 -0.95679,0.20249 -1.27012,0.3159 -3.06055,0.62891 -3.45399,0.60383 -8.70072,1.43999 -13.11914,2.20508 -4.41843,0.76508 -8.00914,1.45804 -10.875,2.2168 -1.43293,0.37938 -2.68337,0.77148 -3.57422,1.19726 -0.44542,0.21289 -0.80459,0.42675 -1.07031,0.71094 -0.13286,0.14209 -0.24535,0.30808 -0.30078,0.51367 -0.0554,0.20559 -0.0354,0.44601 0.0547,0.64258 0.18027,0.39312 0.51312,0.61279 0.91993,0.83594 0.4068,0.22314 0.91293,0.42896 1.49609,0.6289 1.16632,0.39988 2.64161,0.77364 4.16211,1.11524 3.04099,0.6832 6.26741,1.23453 9.82812,1.65234 2.02241,0.23731 4.13871,0.40853 6.31636,0.49661 1.66912,0.0675 3.17795,0.12059 4.87401,0.19848 1.05952,0.0258 1.35004,-0.17523 0.13061,-0.32747 -0.7148,-0.0979 -0.64607,-0.12821 -1.48981,-0.22763 -1.08809,-0.1282 -1.25748,-0.1571 -2.17687,-0.26281 -1.56903,-0.18041 -2.64529,-0.25829 -3.13469,-0.31803 -2.13483,-0.26057 -2.40498,-0.31892 -4.40244,-0.55329 -3.52908,-0.41409 -6.71897,-0.95951 -9.72461,-1.63477 -1.50282,-0.33762 -2.95698,-0.70824 -4.05859,-1.08593 -0.55081,-0.18885 -0.93898,-0.38893 -1.26337,-0.56687 -0.31412,-0.1723 -0.29914,-0.27922 -0.31406,-0.30136 0.007,-0.0919 0.0561,-0.22853 0.10823,-0.28366 0.10725,-0.11085 0.0902,-0.14568 0.47703,-0.33058 0.77369,-0.36978 1.9926,-0.7606 3.39844,-1.13281 2.81169,-0.74442 6.3831,-1.43596 10.79101,-2.19922 4.40791,-0.76327 9.65016,-1.59667 13.11914,-2.20312 3.46898,-0.60646 5.15134,-0.98145 6.01954,-1.24219 0.21707,-0.0652 0.38331,-0.12157 0.52539,-0.1875 0.071,-0.033 0.136,-0.0636 0.21484,-0.12695 0.0789,-0.0633 0.22688,-0.18809 0.22266,-0.45313 -0.004,-0.26503 -0.19856,-0.42249 -0.29688,-0.47656 -0.0983,-0.0541 -0.16809,-0.0695 -0.24219,-0.0859 -0.1482,-0.0329 -0.30836,-0.048 -0.51171,-0.0605 -0.81353,-0.0502 -2.29508,-0.0216 -4.24805,0.0254 -1.95294,0.0469 -4.36384,0.1145 -7.44531,0.21679 -3.08147,0.10229 -6.8304,0.23808 -9.73633,0.28907 -1.15719,0.0203 -1.77325,-0.0178 -2.70117,-0.0215 2.05627,-1.18905 4.17776,-2.47904 5.9414,-3.75 2.123,-1.52994 3.774,-2.94035 5.03321,-4.0625 1.2592,-1.12216 2.14245,-1.97025 3.02343,-2.91601 0.88098,-0.94576 1.75976,-1.98713 2.42969,-2.87891 0.66992,-0.89177 1.13265,-1.63574 1.44727,-2.32422 0.31463,-0.68847 0.47307,-1.31224 0.54296,-1.85742 0.035,-0.27259 0.0604,-0.57003 -0.0293,-0.88867 -0.0897,-0.31864 -0.31638,-0.62889 -0.64844,-0.84571 -0.66428,-0.43373 -1.67845,-0.63576 -2.76367,-0.70312 l 4.9e-4,4.6e-4 c -1.08528,-0.0673 -2.20017,0.0425 -3.76172,0.29687 -1.56156,0.25441 -3.59427,0.65805 -5.83203,1.22266 -2.23777,0.56461 -4.67088,1.28769 -6.92774,1.99609 -2.25685,0.70841 -4.34925,1.40607 -6.33984,2.25782 -1.99059,0.85173 -3.86119,1.8483 -5.34961,2.75976 -1.48843,0.91145 -2.59849,1.74014 -3.41797,2.51953 -0.81947,0.77941 -1.34314,1.51317 -1.75781,2.25782 -0.41467,0.74464 -0.77278,1.559 -0.73633,2.43164 0.0365,0.87257 0.45504,1.63008 0.8418,2.1582 0.38671,0.52805 0.83953,0.88207 1.63086,1.24414 0.79129,0.36205 1.99075,0.79683 3.33594,1.10352 1.34517,0.30667 2.80317,0.47783 4.31054,0.61914 1.50736,0.1413 3.07823,0.25341 4.90625,0.32617 0.035,10e-4 0.0957,5.9e-4 0.13086,0.002 -1.49379,0.73019 -3.0452,1.52416 -4.33594,2.04102 -1.97457,0.79067 -3.65207,1.35244 -5.35937,1.75 -1.70729,0.39754 -3.45844,0.63179 -4.85352,0.71093 -1.39497,0.0792 -2.44181,0.005 -3.26172,-0.082 -0.81954,-0.0877 -1.33244,-0.17886 -1.95898,-0.45898 -0.62646,-0.28009 -1.36703,-0.76484 -1.88086,-1.32422 -0.51378,-0.55932 -0.84827,-1.23219 -1.08008,-1.93945 -0.007,-0.0204 -0.003,-0.0421 -0.01,-0.0625 0.0477,-0.4595 0.0657,-0.83792 0.0937,-1.25782 0.17919,-0.0228 0.39272,-0.10091 0.48437,-0.22851 0.10795,-0.15029 0.1353,-0.27569 0.16407,-0.41016 0.115,-0.53762 0.13804,-1.44132 0.0352,-2.41211 -0.10281,-0.97083 -0.34071,-1.9298 -0.54883,-2.60742 -0.20814,-0.67766 -0.39898,-1.13594 -0.75781,-1.4707 -0.35902,-0.33496 -0.89709,-0.48235 -1.46094,-0.38672 -0.56399,0.0957 -1.24367,0.42043 -1.97656,1.18555 -0.0383,0.04 -0.0786,0.12963 -0.11719,0.17187 -0.008,8.7e-4 -0.0118,-0.005 -0.0195,-0.004 -0.16941,0.0275 -0.28182,0.12367 -0.34375,0.19335 -0.0619,0.0697 -0.0917,0.12785 -0.11914,0.18165 -0.055,0.10758 -0.0914,0.20636 -0.13476,0.32226 -0.0313,0.0837 -0.0887,0.30197 -0.12696,0.4082 -0.46488,0.64487 -0.93797,1.19591 -1.36914,2.02344 -0.70247,1.34826 -1.29377,2.8346 -1.91406,4.33008 -0.62028,1.49549 -1.28038,3.02366 -1.71094,3.81641 -0.21528,0.39637 -0.27699,0.45516 -0.3674,0.54036 -0.0904,0.0852 -0.2417,0.12987 -0.3141,0.13857 -0.14466,0.0173 -0.284,0.0166 -0.72269,-0.29593 -0.43863,-0.31268 -1.02722,-0.82015 -1.59385,-1.60369 -0.56661,-0.7835 -1.09306,-1.80876 -1.41016,-2.60547 -0.31709,-0.79668 -0.43581,-1.37401 -0.59375,-2.12109 -0.15796,-0.74708 -0.33338,-1.55243 -0.30078,-2.78906 0.0172,-0.65463 0.1355,-1.2582 0.2794,-1.9605 0.15958,-0.27837 0.31694,-0.4546 0.51943,-0.602 0.45011,0.96515 0.92488,2.05471 1.52343,3.02148 0.81098,1.30988 1.61282,1.99786 2.10352,2.35547 0.12266,0.0894 0.23186,0.16704 0.36914,0.23242 0.13728,0.0654 0.35208,0.14525 0.60352,0.041 0.25143,-0.10423 0.35995,-0.33367 0.40625,-0.5 0.0463,-0.16633 0.0594,-0.33061 0.0664,-0.53516 0.028,-0.81805 -0.0959,-2.32363 -0.29492,-3.73047 -0.19911,-1.40686 -0.47497,-2.67251 -0.62891,-3.36523 -0.077,-0.34636 -0.0727,-0.55969 -0.29101,-0.84375 -0.10917,-0.14203 -0.34584,-0.2658 -0.5293,-0.26953 -0.18346,-0.004 -0.30444,0.0438 -0.42578,0.0918 -0.48564,0.1919 -1.17007,0.60555 -1.99425,1.20612 -0.0538,0.0392 -0.14832,0.12194 -0.21141,0.17565 -0.15472,0.13174 -0.28604,0.33172 -0.42715,0.44636 -0.078,-0.15212 -0.15407,-0.305 -0.22852,-0.41602 -0.0513,-0.0765 -0.10229,-0.14723 -0.18359,-0.2207 -0.0813,-0.0735 -0.21574,-0.17084 -0.41992,-0.17187 -0.20418,-0.001 -0.38042,0.12658 -0.46094,0.22461 -0.0805,0.098 -0.11493,0.18065 -0.14649,0.26367 -0.0631,0.16603 -0.10187,0.34427 -0.14843,0.57031 -0.0723,0.35107 -0.109,1.01145 -0.18555,1.53711 -0.0329,0.0219 -0.12965,0.13818 -0.20083,0.23378 -0.87816,1.17958 -1.5657,2.78395 -2.43589,4.72911 -0.8702,1.94515 -1.88409,4.25311 -2.58789,5.8125 -0.70381,1.55937 -1.10033,2.33713 -1.49609,2.73633 -0.39577,0.3992 -0.83379,0.53169 -1.36914,0.55469 -0.53532,0.023 -1.11153,-0.0866 -1.65625,-0.3125 -0.54468,-0.22589 -1.03263,-0.54444 -1.71094,-1.2793 -0.56786,-0.61519 -1.14917,-1.41934 -1.52539,-1.94922 0.3983,-0.11457 0.78545,-0.22363 1.19531,-0.60352 0.56333,-0.52212 1.20719,-1.28406 1.81641,-2.15625 0.60922,-0.87217 1.17345,-1.83795 1.48437,-2.60351 0.31095,-0.7656 0.37514,-1.41744 0.0684,-1.9336 -0.30693,-0.51639 -0.87666,-0.78224 -1.52148,-0.89062 -4.71082,2.07873 6.99915,-13.69615 2.10716,-15.30283 -5.6e-4,-1e-4 -0.0671,-0.008 -0.0918,-0.008 -0.0247,2.9e-4 -0.044,0.002 -0.0606,0.004 -0.033,0.004 -0.0544,0.009 -0.0723,0.0137 -0.0714,0.0193 -0.0953,0.0341 -0.12695,0.0488 m -45.733983,25.92873 c 1.77296,-1.39123 5.025997,-3.70947 7.966406,-6.02253 2.94041,-2.31307 5.41703,-4.35468 7.263672,-5.97852 1.846643,-1.62385 3.058694,-2.82254 3.75586,-3.6582 0.348589,-0.41783 0.573855,-0.74611 0.708984,-1.0625 0.135129,-0.31639 0.161946,-0.65123 0.08008,-0.92578 -0.163827,-0.5494 -0.705877,-0.91461 -1.416015,-1.04883 -0.710251,-0.13423 -1.669348,-0.0949 -3.074219,0.23438 -1.404875,0.32923 -3.246208,0.94824 -5.214844,1.67578 -1.968637,0.72753 -4.054413,1.56276 -5.931641,2.22656 -1.877225,0.6638 -3.555102,1.20716 -4.636718,1.39258 -0.976475,0.1674 -0.991352,0.11185 -1.136829,0.0928 -0.08501,-0.0111 -0.273078,-0.0582 -0.353852,-0.14381 -0.07254,-0.0768 -0.107145,-0.2154 -0.0838,-0.29606 0.05682,-0.19631 0.167759,-0.34651 0.57057,-0.82086 0.461703,-0.5437 1.189444,-1.27532 2.089844,-2.125 0.900399,-0.84968 1.981232,-1.81989 3.15625,-2.86719 1.175018,-1.0473 2.449656,-2.17409 3.347656,-3.17383 0.898004,-0.99972 1.387108,-1.84949 1.617188,-2.25 0.126809,-0.22074 0.250603,-0.45519 0.3125,-0.72851 0.03095,-0.13666 0.05097,-0.29031 0.0059,-0.47071 -0.04511,-0.18039 -0.189762,-0.37956 -0.373047,-0.47656 -0.511197,-0.27052 -1.284238,-0.2243 -2.951171,0.54688 -1.666958,0.77119 -4.273588,2.31925 -7.371094,4.40039 -3.097505,2.08112 -6.675855,4.69175 -10.087891,7.47461 -3.412036,2.78286 -6.656873,5.73626 -9.425781,8.74804 -2.768909,3.0118 -5.045213,6.06506 -7.310547,9.10157 -0.516608,0.63789 -1.315403,2.49691 0.671952,0.90383 l 1.32427,-1.02393 c 0.459128,-0.35685 0.792092,-0.60183 1.616726,-1.33886 1.316699,-1.14837 -0.22973,-0.77585 -0.65201,-0.63284 1.615528,-2.12222 3.172601,-4.25281 5.085937,-6.33398 2.725846,-2.96495 5.938194,-5.89034 9.322266,-8.6504 3.384073,-2.76005 6.939718,-5.35397 10.011718,-7.41796 3.072003,-2.064 5.619069,-3.72842 7.234375,-4.32422 0.913434,-0.33692 1.077694,-0.32605 1.218685,-0.21039 0.146031,0.12608 0.0366,0.42775 -0.08285,0.69981 -0.20521,0.46741 -0.317463,0.62511 -0.909277,1.31526 -0.810089,0.94469 -2.09485,2.04697 -3.271484,3.09571 -1.176634,1.04874 -2.261304,2.0218 -3.175782,2.88476 -0.914475,0.86296 -1.654932,1.61142 -2.162109,2.20313 -0.507173,0.59172 -0.802705,1.03395 -0.90625,1.50976 -0.05175,0.23781 -0.05324,0.49826 0.04883,0.74414 0.102072,0.24589 0.311569,0.45101 0.556641,0.56836 0.489831,0.23453 1.120679,0.21963 2.271484,-0.0273 1.15078,-0.24695 2.855885,-0.75382 4.761719,-1.42773 1.905832,-0.67392 3.994515,-1.50953 5.945312,-2.23047 1.950799,-0.72095 3.764325,-1.37325 5.095703,-1.63867 1.346576,-0.26845 1.764654,-0.23157 2.180019,-0.18377 0.276737,0.0319 0.596897,0.1577 0.709886,0.25791 0.129201,0.11458 0.208035,0.209 0.191043,0.36735 -0.01914,0.17837 -0.05986,0.36726 -0.375846,0.74601 -0.631981,0.75752 -1.82277,1.94342 -3.648438,3.54882 -1.825666,1.6054 -4.290508,3.63638 -7.220703,5.94141 -2.930195,2.30503 -6.220103,4.79776 -8.008737,6.20129 M 178.24609,206.96868 c 0.9768,0.0606 1.29714,0.21272 1.66745,0.38173 0.20771,0.0948 0.51806,0.36027 0.59209,0.51908 0.074,0.15881 0.14252,0.37193 0.13015,0.58946 -0.0579,0.4516 -0.0656,0.79258 -0.33886,1.39059 -0.27328,0.59802 -0.69569,1.28575 -1.33789,2.14062 -0.64221,0.85488 -1.5022,1.87667 -2.35938,2.79688 -0.85717,0.92021 -1.71122,1.74134 -2.95703,2.85156 -1.24581,1.11021 -2.86707,2.49278 -4.95312,3.99609 -2.08607,1.50332 -4.64759,3.13147 -7.05078,4.44922 -0.075,0.0412 -0.13229,0.0571 -0.20703,0.0977 -0.65473,-0.0137 -1.59945,0.006 -2.18165,-0.0176 -1.81021,-0.072 -3.35972,-0.18241 -4.85156,-0.32227 -1.49182,-0.13985 -2.91104,-0.30798 -4.18164,-0.59765 -1.27057,-0.28968 -2.42571,-0.70912 -3.14258,-1.03711 -0.71681,-0.32798 -0.92814,-0.50159 -1.24023,-0.92774 -0.31204,-0.42609 -0.62506,-1.04837 -0.64844,-1.60742 -0.0233,-0.55898 0.23163,-1.22594 0.60938,-1.9043 0.37775,-0.67835 0.82583,-1.30773 1.57422,-2.01953 0.74839,-0.71178 1.80293,-1.5045 3.25,-2.39062 1.44706,-0.88614 3.28155,-1.86364 5.2207,-2.69336 1.93915,-0.82974 3.99993,-1.51956 6.24609,-2.22461 2.24616,-0.70505 4.66476,-1.4233 6.87305,-1.98047 2.20829,-0.55717 4.21661,-0.95558 5.74805,-1.20508 1.53143,-0.2495 2.56232,-0.34574 3.53906,-0.28515 z m -52.87855,10.95368 c 0.0444,0.0694 0.0697,0.11361 0.10644,0.27881 0.15281,0.6876 0.39569,1.81929 0.58849,3.18157 0.18248,1.28968 0.27732,2.65192 0.26953,3.36523 -0.42432,-0.32455 -1.00716,-0.80392 -1.6836,-1.89648 -0.59821,-0.96622 -1.15824,-2.23668 -1.63086,-3.24219 0.2389,-0.20214 0.47297,-0.54091 0.70899,-0.71289 0.7144,-0.52059 1.16505,-0.87392 1.28545,-0.94098 0.10635,-0.0592 0.25473,-0.19074 0.35556,-0.0331 z m 9.41175,2.13889 c 0.36845,0.0127 0.46998,0.0486 0.61351,0.18242 0.14371,0.13407 0.28994,0.30998 0.4822,0.93593 0.11944,0.38891 0.21158,0.96805 0.3164,1.50196 -0.1488,-0.0319 -0.33815,-0.002 -0.43555,0.0664 -0.10613,0.0751 -0.14519,0.14453 -0.17578,0.19922 -0.12234,0.21877 -0.12871,0.36128 -0.17187,0.61133 -0.0311,0.18024 -0.0307,0.52906 -0.0586,0.7793 -0.23451,-0.2336 -0.43556,-0.32081 -0.65429,-0.63282 -0.58713,-0.8375 -1.07915,-2.04241 -1.37696,-2.65625 -0.009,-0.0188 -0.0186,-0.0291 -0.0273,-0.0469 0.0202,-0.0217 0.0465,-0.0769 0.0664,-0.0977 0.62203,-0.64938 0.79724,-0.64899 1.10354,-0.7851 z m -2.10937,1.90547 c 0.28315,0.62627 0.63524,1.49688 1.20703,2.3125 0.47661,0.67985 0.92908,0.97995 1.375,1.33789 3.5e-4,0.0399 -0.009,0.0635 -0.008,0.10352 0.0154,0.7108 0.16197,1.40194 0.35351,2.08789 -0.0318,0.29838 -0.0208,0.50149 -0.0606,0.80469 -0.18496,1.41233 -0.45647,2.84061 -0.73242,3.84961 -0.27595,1.009 -0.46148,1.44197 -0.65756,1.75215 -0.10007,0.14889 -0.1145,0.16658 -0.18026,0.25091 -0.0313,0.0306 -0.0658,0.0499 -0.11266,0.064 -0.0211,0.006 -0.12341,-0.002 -0.16845,-0.0424 -0.0652,-0.0588 -0.009,0.006 -0.14276,-0.1516 -0.27579,-0.32411 -0.64295,-1.03927 -0.95703,-1.86718 -0.31406,-0.82788 -0.57064,-1.80276 -0.71875,-2.81055 -0.14811,-1.00777 -0.19067,-2.05578 -0.13281,-3.09766 0.0578,-1.04184 0.21722,-2.08192 0.43555,-2.98828 0.16344,-0.67851 0.33985,-1.15195 0.5,-1.60547 z"
         id="path893"
         sodipodi:nodetypes="cssssssssssssssccscsssssscssscsssssssscsssssssssscssccssccsscsssssscsssssccsssssssccssssssccscccsscssssscssccssssssscssssccssccsscccsssssssccscscssssccssscccsssssscssccsscsssssscssssssscsssscccscccsssssscsssssssssssssssssscccccsssscssssssssssssssssssccsscssssscccsssscsssssssccccscscsssccsccsscsccccccsccccssccsssscsccs"
         clip-path="url(#clipPath817)"
         transform="translate(-7.366868,-4.79351)" />
      <path
         style="fill:#ffffff;fill-opacity:1;stroke:#ffffff;stroke-width:0.0230313;stroke-linejoin:bevel;stroke-dasharray:none;stroke-opacity:1"
         d="m 51.659608,232.02221 c -0.434698,0.14842 -0.977131,0.31447 -1.544284,0.47164 -0.567154,0.15717 -1.158852,0.30541 -1.734867,0.40157 -0.576014,0.0961 -1.13615,0.14018 -1.613329,0.0801 -0.47718,-0.0601 -0.871314,-0.22445 -1.134936,-0.48975 -0.263622,-0.26529 -0.396654,-0.6316 -0.432922,-1.13485 -0.03627,-0.50325 0.02429,-1.14337 0.188539,-1.97409 0.164253,-0.83073 0.432202,-1.85196 0.844414,-3.23078 0.412213,-1.37881 0.968643,-3.11503 1.552456,-4.70545 0.583814,-1.59041 1.194956,-3.03484 1.597546,-3.95529 0.402589,-0.92045 0.596604,-1.31685 0.714945,-1.65415 0.118342,-0.33729 0.160981,-0.61547 0.02256,-0.68686 -0.13842,-0.0714 -0.457905,0.0642 -0.763083,0.39762 -0.305179,0.33346 -0.595963,0.86472 -1.13502,2.11229 -0.539058,1.24758 -1.32633,3.21132 -1.93771,5.00946 -0.61138,1.79813 -1.046805,3.43045 -1.348718,4.66869 -0.301913,1.23825 -0.470277,2.08226 -0.577007,2.80112 -0.106729,0.71886 -0.151825,1.3125 -0.118531,1.78942 0.0333,0.47691 0.144926,0.83704 0.326392,1.12985 0.181467,0.2928 0.432686,0.51828 0.731492,0.68816 0.298806,0.16988 0.645172,0.2842 1.083645,0.31975 0.438472,0.0356 0.969065,-0.008 1.532537,-0.0881 0.563473,-0.0804 1.159706,-0.198 1.773085,-0.35652 0.613379,-0.15852 1.243725,-0.35791 1.92293,-0.57698 0.679205,-0.21907 1.40719,-0.45779 2.175486,-0.79662 0.768296,-0.33883 1.577124,-0.77785 2.308786,-1.20995 0.731662,-0.4321 1.386149,-0.85727 2.128258,-1.39267 0.74211,-0.53541 1.571815,-1.18104 2.401535,-1.82668 0,0 -0.0048,-1.09793 -0.0048,-1.09793 -1.369546,1.02839 -2.73906,2.05676 -3.861779,2.79172 -1.122718,0.73496 -1.998577,1.17646 -2.625592,1.47843 -0.627016,0.30197 -1.005151,0.46439 -1.357724,0.611 -0.352572,0.14661 -0.679606,0.27742 -1.114304,0.42584 z"
         id="path3101"
         inkscape:path-effect="#path-effect3103"
         inkscape:original-d="m 51.767264,232.0046 c -0.54232,0.16614 -1.084754,0.33219 -1.627331,0.49817 -0.591736,0.14836 -1.183433,0.2966 -1.775346,0.44477 -0.560139,0.0441 -1.120269,0.0882 -1.680585,0.13211 -0.394073,-0.16425 -0.788206,-0.32858 -1.182437,-0.493 -0.132941,-0.36623 -0.265976,-0.73254 -0.399109,-1.09897 0.06063,-0.64004 0.121177,-1.28016 0.181667,-1.92043 0.268023,-1.02117 0.535981,-2.0424 0.803877,-3.06381 0.556529,-1.73621 1.11296,-3.47243 1.669356,-5.20887 0.611234,-1.44438 1.222378,-2.88881 1.83347,-4.3334 0.194084,-0.3963 0.388101,-0.7927 0.582057,-1.18923 0.04271,-0.2781 0.08535,-0.55628 0.127928,-0.83461 -0.319447,0.13568 -0.638934,0.27122 -0.958511,0.40666 -0.290733,0.5314 -0.581517,1.06266 -0.872386,1.59384 -0.787247,1.96396 -1.574521,3.9277 -2.361901,5.89143 -0.435381,1.63253 -0.870811,3.26484 -1.306335,4.89716 -0.168303,0.84417 -0.336668,1.68818 -0.50511,2.53212 -0.04503,0.59377 -0.09013,1.18741 -0.13529,1.78095 0.111705,0.36027 0.223339,0.7204 0.334913,1.08045 0.251305,0.2256 0.502521,0.45108 0.753684,0.67645 0.346436,0.11448 0.692791,0.22884 1.039121,0.34298 0.530674,-0.0431 1.061266,-0.0863 1.591802,-0.12958 0.596423,-0.11752 1.192657,-0.23511 1.788896,-0.35282 0.630532,-0.19933 1.260878,-0.39872 1.891214,-0.59823 0.728075,-0.23863 1.456062,-0.47735 2.183863,-0.71614 0.808813,-0.43887 1.617643,-0.87789 2.426363,-1.317 0.654615,-0.42509 1.309098,-0.85026 1.963512,-1.27553 0.829815,-0.64555 2.489161,-1.93692 2.489161,-1.93692 l -0.0048,-1.09793 c 0,0 -2.738979,2.05687 -4.108638,3.08518 -0.875805,0.44161 -1.751659,0.88312 -2.627645,1.32454 -0.378054,0.16252 -0.756193,0.32493 -1.134423,0.48726 -0.326917,0.13089 -0.65395,0.2617 -0.981037,0.3924 z"
         sodipodi:nodetypes="cccccccccccccccccccccccccczcccccc" />
    </g>
    <g
       inkscape:groupmode="layer"
       id="layer2"
       inkscape:label="second try">
      <g
         id="g5165">
        <path
           style="color:#000000;fill:#1a1c20;fill-opacity:1;stroke:none;stroke-linejoin:bevel;stroke-opacity:1;-inkscape-stroke:none"
           d="m 157.20041,26.466795 c -1.27353,0.11158 -2.53974,0.563151 -4.22461,1.259765 -1.68488,0.696621 -3.82638,1.687133 -6.13477,2.9375 -2.30838,1.25037 -4.7415,2.736945 -7.25586,4.339844 -2.51435,1.602901 -5.11359,3.325735 -7.93945,5.214844 -2.82586,1.889108 -5.89619,3.958035 -8.97656,6.142578 -3.08037,2.184544 -6.15293,4.472091 -9.07812,6.693359 -2.9252,2.22127 -5.72004,4.387684 -9.15039,7.160157 -3.43035,2.772474 -7.492322,6.146306 -10.816408,9 -3.324087,2.853695 -5.901509,5.182271 -8.216797,7.332031 -2.315288,2.149761 -4.40649,4.15929 -7.212891,7.148437 -2.806402,2.989149 -6.32743,6.952439 -9.478515,10.714844 -3.151085,3.762406 -5.911253,7.299466 -8.650391,10.804686 -2.739136,3.50521 -5.258113,7.00533 -5.788463,7.78151 -0.53035,0.77618 -1.066012,1.80686 -1.22208,2.16852 -0.156068,0.36165 -0.395407,1.04879 -0.48851,1.4555 -0.0931,0.40671 -0.179731,0.7525 -0.157996,1.18791 0.02173,0.4354 0.138533,0.84646 0.374567,1.02266 0.113025,0.0844 0.302795,0.14659 0.613145,0.15727 0.31035,0.0107 0.580235,-0.0698 0.790073,-0.13567 0.402652,-0.12645 1.304349,-0.72122 1.492239,-0.83872 0.375782,-0.23501 0.637224,-0.47265 1.150699,-0.86536 2.053758,-1.57076 5.68044,-4.82073 9.439697,-7.96263 0.935464,-0.86709 3.877984,-3.1114 1.958648,-3.51333 -0.635149,-0.13301 -1.761426,-0.41831 -4.261626,0.7494 2.451994,-3.13571 4.892213,-6.26267 7.664062,-9.572273 3.099775,-3.701141 6.589838,-7.629895 9.333985,-10.552734 2.744146,-2.922839 4.742889,-4.843852 7.029297,-6.966797 2.286409,-2.122945 4.820956,-4.409071 8.107421,-7.230469 3.286466,-2.821398 7.330074,-6.183 10.728514,-8.929687 3.39845,-2.746687 6.15475,-4.883302 9.06055,-7.089844 2.9058,-2.206541 5.94529,-4.469421 8.97656,-6.619141 3.03126,-2.149722 6.07258,-4.198151 8.89062,-6.082031 2.81804,-1.883881 5.39637,-3.592287 7.87109,-5.169922 2.47472,-1.577633 4.84163,-3.021317 7.02344,-4.203125 2.18182,-1.181812 3.50201,-1.918185 5.0933,-2.475252 0.82142,-0.287557 0.97526,-0.312972 1.40024,-0.280002 0.55244,0.113473 0.80119,0.505239 0.83799,0.785683 0.0368,0.303826 0.0658,0.605724 -0.25138,1.30947 -0.37288,0.666498 -0.77328,1.10206 -1.45115,1.77138 -1.2853,1.26908 -2.68876,2.846011 -4.5431,4.623098 -1.85435,1.777084 -4.02799,3.79622 -6.26368,5.830078 -2.23569,2.033857 -4.54027,4.089356 -6.68359,6.029297 -2.14332,1.939941 -4.1182,3.75731 -5.58008,5.203125 -1.46188,1.445817 -2.42038,2.527088 -3.13281,3.56836 -0.71241,1.041242 -1.16897,2.015854 -1.37891,2.972656 -0.20988,0.956576 -0.0963,2.153202 0.48438,3.039062 0.58037,0.88536 1.42206,1.491258 2.45312,1.826172 1.03069,0.334791 2.07672,0.291424 3.37305,0.123047 1.29627,-0.168373 3.05759,-0.497016 5.2832,-1.09375 2.22559,-0.59673 4.86625,-1.446948 7.54493,-2.339844 2.67868,-0.892896 5.41463,-1.837442 8.50976,-2.984375 3.09513,-1.14693 6.5268,-2.487143 9.61328,-3.65039 3.0865,-1.163249 5.83635,-2.151684 8.5,-3.029297 2.66366,-0.877614 5.23702,-1.641495 7.39258,-2.117188 2.15559,-0.475696 3.20443,-0.608069 4.55046,-0.650545 1.34609,-0.04248 1.73476,0.02078 2.3172,0.186783 0.33316,0.09496 0.79506,0.546679 0.93798,0.760484 0.1327,0.198518 0.1955,0.644408 0.19384,1.001449 -0.002,0.372135 -0.0833,0.976378 -0.52681,1.705594 -0.4873,0.801259 -0.6901,0.961416 -2.21872,2.474751 -1.52862,1.513333 -3.53538,3.397588 -5.78907,5.404297 -2.25368,2.006706 -4.76568,4.145129 -7.19921,6.160156 -2.43353,2.015027 -4.79932,3.914459 -7.56446,6.164063 -2.76513,2.249602 -5.90517,4.831281 -9.14453,7.388672 -3.23936,2.55739 -6.59621,5.10542 -10.22656,7.847656 -3.63034,2.742237 -7.52277,5.668435 -10.79492,8.05664 -3.27215,2.388203 -5.91918,4.233613 -8.30469,5.722653 -2.38549,1.48905 -4.53728,2.64013 -6.5332,3.61524 -1.99591,0.97511 -3.47076,1.4609 -5.55794,2.25312 -2.08718,0.79222 -3.81856,1.24849 -6.04772,1.70216 -2.25235,0.45837 -3.88791,0.40584 -5.12278,0.0917 -1.23471,-0.314 -2.5318,-0.91209 -3.329693,-2.02949 -0.783748,-1.09758 -1.460667,-2.51813 -1.64082,-4.153 -0.180147,-1.6348 -0.265569,-2.99025 -0.142448,-4.94779 0.122757,-1.951757 0.372266,-4.439251 1.070629,-7.863807 0.6656,-3.263896 1.230882,-4.82546 2.099982,-9.392845 0.8691,-4.567385 0.80976,-8.862074 -1.88812,-0.320577 -1.218368,3.579821 -2.017718,5.376447 -2.971814,8.725542 -0.954093,3.349088 -1.970976,6.474493 -2.23099,8.587237 -0.260011,2.11274 -0.369849,4.16427 -0.144531,6.20899 0.225311,2.04466 0.775988,4.07328 1.832031,5.8457 1.055968,1.77229 2.742484,3.3514 5.062504,3.94141 2.31985,0.58997 4.83507,0.24408 7.32421,-0.31641 2.48912,-0.56049 4.96179,-1.39928 7.14649,-2.22852 2.18468,-0.82922 4.12012,-1.66892 6.20898,-2.68945 2.08886,-1.02051 4.36698,-2.23794 6.87695,-3.80469 2.50998,-1.56673 5.22603,-3.46318 8.5332,-5.87695 3.30718,-2.41377 7.20876,-5.349955 10.84375,-8.095703 3.635,-2.745747 7.01341,-5.308898 10.29102,-7.896485 3.27761,-2.587586 6.43541,-5.183252 9.18945,-7.423828 2.75404,-2.240575 5.12786,-4.145002 7.58984,-6.183593 2.462,-2.038593 5.00195,-4.20309 7.30078,-6.25 2.29884,-2.046908 4.34601,-3.967374 5.93555,-5.541016 1.58954,-1.573641 2.74057,-2.800365 3.54688,-3.962891 0.80633,-1.162567 1.20927,-2.277015 1.32226,-3.248047 0.11303,-0.971233 -0.045,-2.16149 -0.73828,-3.115234 -0.69363,-0.954168 -1.69283,-1.546979 -2.83203,-1.919922 -1.13943,-0.373022 -2.43456,-0.502174 -4.05078,-0.451172 -1.61629,0.051 -3.62832,0.284551 -5.99414,0.806641 -2.36584,0.522095 -5.03092,1.319012 -7.76172,2.21875 -2.73081,0.899739 -5.53171,1.906654 -8.65039,3.082031 -3.11867,1.175377 -6.54609,2.515188 -9.59375,3.644531 -3.04766,1.129342 -5.73724,2.056943 -8.39063,2.941407 -2.65337,0.884462 -5.23819,1.767202 -7.32812,2.27539 -1.76174,0.428385 -1.91291,0.529411 -3.02363,0.613996 -1.11632,0.08501 -1.34263,0.05082 -1.58633,0.02563 -0.24471,-0.02529 -0.82146,-0.228052 -0.93402,-0.317319 -0.15821,-0.125476 -0.35267,-0.301484 -0.37552,-0.635214 -0.0279,-0.391966 -0.0576,-0.713347 0.44612,-1.449572 0.50369,-0.736189 0.67195,-0.941408 2.04763,-2.301969 1.37567,-1.36056 3.32845,-3.159339 5.45703,-5.085937 2.12858,-1.926597 4.43888,-3.986162 6.69336,-6.03711 2.25447,-2.050947 4.44653,-4.087671 6.33398,-5.896484 1.88745,-1.808809 3.47326,-3.392718 4.78321,-4.832031 1.30994,-1.439322 2.338,-2.716545 3.05468,-3.892578 0.71671,-1.176093 1.07736,-2.230041 1.20899,-3.128907 0.13165,-0.899109 0.053,-2.174297 -0.81836,-3.085937 -0.872,-0.912237 -2.12127,-1.189685 -3.39453,-1.078125 z"
           id="path4413-3"
           sodipodi:nodetypes="ssssssssssssszzzzszssscscssssssssssccccssssssssssssssssssssssssssssssssssssszcsssssssssssssssssssssssssssssscsssssssscss" />
        <path
           style="color:#000000;fill:#ffffff;fill-opacity:1;stroke:none;stroke-linejoin:bevel;-inkscape-stroke:none"
           d="m 156.17143,23.847556 c -1.27353,0.11158 -2.53974,0.563151 -4.22461,1.259765 -1.68488,0.696621 -3.82638,1.687133 -6.13477,2.9375 -2.30838,1.25037 -4.7415,2.736945 -7.25586,4.339844 -2.51435,1.602901 -5.11359,3.325735 -7.93945,5.214844 -2.82586,1.889108 -5.89619,3.958035 -8.97656,6.142578 -3.08037,2.184544 -6.15293,4.472091 -9.07812,6.693359 -2.9252,2.22127 -5.72004,4.387684 -9.1504,7.160157 -3.430358,2.772474 -7.492324,6.146306 -10.81641,9 -3.324087,2.853695 -5.901509,5.182271 -8.216797,7.332031 -2.315288,2.149761 -4.40649,4.15929 -7.212891,7.148437 -2.806402,2.989149 -6.32743,6.952439 -9.478515,10.714844 -3.151085,3.762406 -5.911253,7.299464 -8.650391,10.804685 -2.739136,3.50521 -5.258113,7.00533 -5.788463,7.78151 -0.53035,0.77618 -1.066012,1.80686 -1.22208,2.16852 -0.156068,0.36165 -0.395407,1.04879 -0.48851,1.4555 -0.0931,0.40671 -0.179731,0.7525 -0.157996,1.18791 0.02173,0.4354 0.138533,0.84646 0.374567,1.02266 0.113025,0.0844 0.302795,0.14659 0.613145,0.15727 0.31035,0.0107 0.580235,-0.0698 0.790073,-0.13567 0.402652,-0.12645 1.304349,-0.72122 1.492239,-0.83872 0.375782,-0.23501 0.637224,-0.47265 1.150699,-0.86536 2.053758,-1.57076 5.68044,-4.82073 9.439697,-7.96263 0.935464,-0.86709 3.877984,-3.1114 1.958648,-3.51333 -0.635149,-0.13301 -1.761426,-0.41831 -4.261626,0.7494 2.451994,-3.13571 4.892213,-6.262671 7.664062,-9.572272 3.099775,-3.701141 6.589838,-7.629895 9.333985,-10.552734 2.744146,-2.922839 4.742889,-4.843852 7.029297,-6.966797 2.286409,-2.122945 4.820956,-4.409071 8.107421,-7.230469 3.286466,-2.821398 7.330076,-6.183 10.728526,-8.929687 3.39844,-2.746687 6.15475,-4.883302 9.06055,-7.089844 2.9058,-2.206541 5.94529,-4.469421 8.97656,-6.619141 3.03126,-2.149722 6.07258,-4.198151 8.89062,-6.082031 2.81804,-1.883881 5.39637,-3.592287 7.87109,-5.169922 2.47472,-1.577633 4.84163,-3.021317 7.02344,-4.203125 2.18182,-1.181812 3.50201,-1.918185 5.0933,-2.475252 0.82142,-0.287557 0.97526,-0.312972 1.40024,-0.280002 0.55244,0.113473 0.80119,0.505239 0.83799,0.785683 0.0368,0.303826 0.0658,0.605724 -0.25138,1.30947 -0.37288,0.666498 -0.77328,1.10206 -1.45115,1.77138 -1.2853,1.26908 -2.68876,2.846011 -4.5431,4.623098 -1.85435,1.777084 -4.02799,3.79622 -6.26368,5.830078 -2.23569,2.033857 -4.54027,4.089356 -6.68359,6.029297 -2.14332,1.939941 -4.1182,3.75731 -5.58008,5.203125 -1.46188,1.445817 -2.42038,2.527088 -3.13281,3.56836 -0.71241,1.041242 -1.16897,2.015854 -1.37891,2.972656 -0.20988,0.956576 -0.0963,2.153202 0.48438,3.039062 0.58037,0.88536 1.42206,1.491258 2.45312,1.826172 1.03069,0.334791 2.07672,0.291424 3.37305,0.123047 1.29627,-0.168373 3.05759,-0.497016 5.2832,-1.09375 2.22559,-0.59673 4.86625,-1.446948 7.54493,-2.339844 2.67868,-0.892896 5.41463,-1.837442 8.50976,-2.984375 3.09513,-1.14693 6.5268,-2.487143 9.61328,-3.65039 3.0865,-1.163249 5.83635,-2.151684 8.5,-3.029297 2.66366,-0.877614 5.23702,-1.641495 7.39258,-2.117188 2.15559,-0.475696 3.20443,-0.608069 4.55046,-0.650545 1.34609,-0.04248 1.73476,0.02078 2.3172,0.186783 0.33316,0.09496 0.79506,0.546679 0.93798,0.760484 0.1327,0.198518 0.1955,0.644408 0.19384,1.001449 -0.002,0.372135 -0.0833,0.976378 -0.52681,1.705594 -0.4873,0.801259 -0.6901,0.961416 -2.21872,2.474751 -1.52862,1.513333 -3.53538,3.397588 -5.78907,5.404297 -2.25368,2.006706 -4.76568,4.145129 -7.19921,6.160156 -2.43353,2.015027 -4.79932,3.914459 -7.56446,6.164063 -2.76513,2.249602 -5.90517,4.831281 -9.14453,7.388672 -3.23936,2.55739 -6.59621,5.10542 -10.22656,7.847656 -3.63034,2.742237 -7.52277,5.668435 -10.79492,8.05664 -3.27215,2.388201 -5.91918,4.233612 -8.30469,5.722652 -2.38549,1.48905 -4.53728,2.64013 -6.5332,3.61524 -1.99591,0.97511 -3.47076,1.4609 -5.55794,2.25312 -2.08718,0.79222 -3.81856,1.24849 -6.04772,1.70216 -2.25235,0.45837 -3.88791,0.40584 -5.12279,0.0917 -1.23471,-0.314 -2.531798,-0.91209 -3.329695,-2.02949 -0.783748,-1.09758 -1.460667,-2.51813 -1.64082,-4.153 -0.180147,-1.6348 -0.265569,-2.99025 -0.142448,-4.947791 0.122757,-1.951755 0.372266,-4.439249 1.070629,-7.863805 0.6656,-3.263896 1.230886,-4.82546 2.099986,-9.392845 0.869098,-4.567385 0.809758,-8.862074 -1.888124,-0.320577 -1.218368,3.579821 -2.017718,5.376447 -2.971814,8.725542 -0.954093,3.349088 -1.970976,6.474493 -2.23099,8.587235 -0.260011,2.112741 -0.369849,4.164271 -0.144531,6.208991 0.225311,2.04466 0.775988,4.07328 1.832031,5.8457 1.055968,1.77229 2.742484,3.3514 5.062498,3.94141 2.319858,0.58997 4.835088,0.24408 7.324228,-0.31641 2.48912,-0.56049 4.96179,-1.39928 7.14649,-2.22852 2.18468,-0.82922 4.12012,-1.66892 6.20898,-2.68945 2.08886,-1.02051 4.36698,-2.23794 6.87695,-3.80469 2.50998,-1.56673 5.22603,-3.46318 8.5332,-5.87695 3.30718,-2.413771 7.20876,-5.349954 10.84375,-8.095702 3.635,-2.745747 7.01341,-5.308898 10.29102,-7.896485 3.27761,-2.587586 6.43541,-5.183252 9.18945,-7.423828 2.75404,-2.240575 5.12786,-4.145002 7.58984,-6.183593 2.462,-2.038593 5.00195,-4.20309 7.30078,-6.25 2.29884,-2.046908 4.34601,-3.967374 5.93555,-5.541016 1.58954,-1.573641 2.74057,-2.800365 3.54688,-3.962891 0.80633,-1.162567 1.20927,-2.277015 1.32226,-3.248047 0.11303,-0.971233 -0.045,-2.16149 -0.73828,-3.115234 -0.69363,-0.954168 -1.69283,-1.546979 -2.83203,-1.919922 -1.13943,-0.373022 -2.43456,-0.502174 -4.05078,-0.451172 -1.61629,0.051 -3.62832,0.284551 -5.99414,0.806641 -2.36584,0.522095 -5.03092,1.319012 -7.76172,2.21875 -2.73081,0.899739 -5.53171,1.906654 -8.65039,3.082031 -3.11867,1.175377 -6.54609,2.515188 -9.59375,3.644531 -3.04766,1.129342 -5.73724,2.056943 -8.39063,2.941407 -2.65337,0.884462 -5.23819,1.767202 -7.32812,2.27539 -1.76174,0.428385 -1.91291,0.529411 -3.02363,0.613996 -1.11632,0.08501 -1.34263,0.05082 -1.58633,0.02563 -0.24471,-0.02529 -0.82146,-0.228052 -0.93402,-0.317319 -0.15821,-0.125476 -0.35267,-0.301484 -0.37552,-0.635214 -0.0279,-0.391966 -0.0576,-0.713347 0.44612,-1.449572 0.50369,-0.736189 0.67195,-0.941408 2.04763,-2.301969 1.37567,-1.36056 3.32845,-3.159339 5.45703,-5.085937 2.12858,-1.926597 4.43888,-3.986162 6.69336,-6.03711 2.25447,-2.050947 4.44653,-4.087671 6.33398,-5.896484 1.88745,-1.808809 3.47326,-3.392718 4.78321,-4.832031 1.30994,-1.439322 2.338,-2.716545 3.05468,-3.892578 0.71671,-1.176093 1.07736,-2.230041 1.20899,-3.128907 0.13165,-0.899109 0.053,-2.174297 -0.81836,-3.085937 -0.872,-0.912237 -2.12127,-1.189685 -3.39453,-1.078125 z"
           id="path4413"
           sodipodi:nodetypes="ssssssssssssszzzzszssscscssssssssssccccssssssssssssssssssssssssssssssssssssszcsssssssssssssssssssssssssssssscsssssssscss" />
      </g>
    </g>
  </g>
</svg>
