<?xml version="1.0" encoding="UTF-8" standalone="no"?>
<!-- Created with Inkscape (http://www.inkscape.org/) -->

<svg
   version="1.1"
   id="svg5306"
   width="1687.5703"
   height="843.93231"
   viewBox="0 0 1687.5703 843.93231"
   sodipodi:docname="slovakiaborderwithmark.svg"
   inkscape:version="1.2.2 (732a01da63, 2022-12-09)"
   xmlns:inkscape="http://www.inkscape.org/namespaces/inkscape"
   xmlns:sodipodi="http://sodipodi.sourceforge.net/DTD/sodipodi-0.dtd"
   xmlns="http://www.w3.org/2000/svg"
   xmlns:svg="http://www.w3.org/2000/svg">
  <defs
     id="defs5310">
    <inkscape:path-effect
       effect="bspline"
       id="path-effect5373"
       is_visible="true"
       lpeversion="1"
       weight="33.333333"
       steps="2"
       helper_size="0"
       apply_no_weight="true"
       apply_with_weight="true"
       only_selected="false" />
    <clipPath
       clipPathUnits="userSpaceOnUse"
       id="clipPath9567">
      <rect
         style="fill:none;stroke:#ec0000;stroke-width:4.30969;stroke-linejoin:bevel;stroke-dasharray:none;stroke-opacity:1"
         id="rect9569"
         width="224.64432"
         height="77.24192"
         x="838.19281"
         y="258.03525"
         transform="rotate(-45)" />
    </clipPath>
  </defs>
  <sodipodi:namedview
     id="namedview5308"
     pagecolor="#ffffff"
     bordercolor="#000000"
     borderopacity="0.25"
     inkscape:showpageshadow="2"
     inkscape:pageopacity="0.0"
     inkscape:pagecheckerboard="0"
     inkscape:deskcolor="#d1d1d1"
     showgrid="false"
     inkscape:zoom="1.6374247"
     inkscape:cx="426.5845"
     inkscape:cy="287.64682"
     inkscape:window-width="2560"
     inkscape:window-height="1377"
     inkscape:window-x="-8"
     inkscape:window-y="-8"
     inkscape:window-maximized="1"
     inkscape:current-layer="layer4" />
  <g
     inkscape:groupmode="layer"
     id="layer3"
     inkscape:label="result"
     transform="translate(-34.882523,-17.322304)">
    <path
       style="fill:none;stroke:#1a1c20;stroke-width:11.3386;stroke-linejoin:bevel;stroke-dasharray:none;stroke-opacity:1"
       d="m 340.62466,332.0429 c 2.19116,0.59334 3.61616,0.69513 4.73519,0.0845 1.11904,-0.61063 1.93331,-1.93382 2.23881,-3.46021 0.30551,-1.5264 0.10194,-3.25672 0.71251,-5.34375 0.61058,-2.08703 2.03555,-4.52984 2.90075,-6.51445 0.86519,-1.98461 1.17055,-3.51137 1.11986,-5.19066 -0.0507,-1.67928 -0.45783,-3.5114 0.10185,-5.29321 0.55968,-1.78182 2.08643,-3.51214 2.64637,-5.64914 0.55994,-2.137 0.1528,-4.68159 0.71264,-6.51438 0.55983,-1.83279 2.08659,-2.95241 3.51156,-4.07204 1.42498,-1.11963 2.74816,-2.23925 4.98798,-2.6463 2.23983,-0.40705 5.39512,-0.1017 7.17622,0.35687 1.7811,0.45856 2.18824,1.06927 2.90032,0.76337 0.71208,-0.30589 1.72992,-1.5273 2.97745,-1.75605 1.24754,-0.22875 2.7234,0.53463 3.89392,1.22178 1.17051,0.68715 2.03568,1.29786 3.60046,1.36099 1.56479,0.0631 3.82948,-0.42035 6.28486,-1.4764 2.45537,-1.05605 5.10175,-2.68459 7.53185,-4.31316 2.4301,-1.62856 4.6439,-3.2571 6.45043,-6.0559 1.80652,-2.79881 3.20605,-6.76838 4.63107,-10.3437 1.42501,-3.57532 2.87543,-6.75606 3.44813,-9.89841 0.5727,-3.14235 0.26735,-6.24676 0.64898,-8.3848 0.38164,-2.13803 1.45036,-3.30854 1.22174,-5.03837 -0.22863,-1.72983 -1.75539,-4.01997 -1.85757,-5.87813 -0.10217,-1.85817 1.22102,-3.28314 2.77326,-4.98806 1.55225,-1.70493 3.33347,-3.68971 3.89358,-5.41951 0.56011,-1.72979 -0.10149,-3.20567 -0.5343,-5.08879 -0.43281,-1.88312 -0.63638,-4.17326 0.076,-6.46391 0.7124,-2.29065 2.34094,-4.58078 3.56236,-7.35422 1.22142,-2.77344 2.03569,-6.03052 2.06147,-8.57494 0.0258,-2.54441 -0.73761,-4.37652 -1.17042,-6.15787 -0.43281,-1.78134 -0.53459,-3.51166 0.15236,-5.5478 0.68696,-2.03614 2.16283,-4.37716 4.07161,-6.15866 1.90878,-1.78149 4.2498,-3.0029 5.39472,-4.73268 1.14491,-1.72977 1.09402,-3.96901 2.44284,-5.929 1.34881,-1.95999 4.09698,-3.63943 6.76934,-4.12265 2.67235,-0.48323 5.26784,0.22925 7.91392,-0.0509 2.64608,-0.28019 5.34335,-1.55249 7.91369,-2.34128 2.57033,-0.7888 5.01314,-1.09415 7.93923,-2.29019 2.92608,-1.19603 6.33584,-3.2826 9.36426,-4.55491 3.02841,-1.27231 5.67479,-1.73034 8.44822,-2.87547 2.77342,-1.14512 5.67426,-2.97723 7.55707,-4.98718 1.88281,-2.00994 2.74797,-4.1983 3.84249,-5.62367 1.09452,-1.42537 2.41771,-2.08696 2.90119,-2.95145 0.48347,-0.86449 0.12723,-1.93322 0.53411,-3.33328 0.40688,-1.40007 1.5774,-3.13039 2.1373,-5.4711 0.5599,-2.3407 0.50901,-5.29243 -0.0248,-7.20098 -0.53386,-1.90854 -1.5517,-2.77371 -1.37404,-3.76663 0.17765,-0.99292 1.55174,-2.11255 3.30809,-1.98488 1.75635,0.12766 3.89381,1.50175 5.87855,2.13751 1.98473,0.63576 3.81683,0.53397 4.85958,-0.0509 1.04276,-0.58489 1.29721,-1.65362 2.34075,-2.77372 1.04354,-1.12011 2.87565,-2.29061 4.04599,-4.35133 1.17035,-2.06071 1.67927,-5.01244 2.54496,-6.56513 0.86569,-1.55269 2.0871,-1.70536 2.97721,-2.90096 0.89012,-1.1956 1.44992,-3.43484 2.41751,-4.52938 0.96759,-1.094527 2.34167,-1.043635 3.58794,-2.163115 1.24627,-1.119481 2.36589,-3.409615 4.04576,-4.962167 1.67987,-1.552551 3.91911,-2.366821 4.22444,-4.60544 0.30533,-2.23862 -1.32321,-5.90284 -1.39965,-8.168276 -0.0764,-2.265436 1.39943,-3.130601 2.79878,-4.453663 1.39935,-1.323062 2.72254,-3.104278 4.32622,-4.045905 1.60368,-0.941627 3.48668,-1.043411 5.24233,-1.374295 1.75564,-0.330884 3.38419,-0.890698 4.55465,-0.177475 1.17047,0.713223 1.88295,2.69801 2.82487,3.944552 0.94192,1.246542 2.11244,1.755464 4.35159,1.831488 2.23916,0.07603 5.54713,-0.280218 8.67677,-1.374472 3.12964,-1.094254 6.08137,-2.926363 8.16834,-3.180208 2.08697,-0.253846 3.30837,1.06934 5.08957,1.526783 1.7812,0.457443 4.12222,0.05031 6.46343,0.966963 2.34121,0.916653 4.68224,3.155899 6.81964,4.096852 2.13741,0.940954 4.0713,0.584711 6.15751,-0.840215 2.08622,-1.424926 4.32546,-3.918629 7.88833,-6.030833 3.56286,-2.112205 8.44848,-3.84253 13.1818,-4.631249 4.73332,-0.78872 9.31359,-0.636044 12.11274,-0.152132 2.79916,0.483913 3.817,1.298183 5.11464,1.577587 1.29765,0.279404 2.8753,0.02494 4.0709,-0.483942 1.19559,-0.508886 2.00987,-1.272269 4.07154,-1.679403 2.06167,-0.407134 5.36964,-0.458026 7.78697,0.662225 2.41732,1.120252 3.94408,3.410388 4.70709,7.812614 0.76301,4.402227 0.76301,10.916391 1.73041,15.496845 0.96739,4.580454 2.90128,7.226834 3.8169,9.160668 0.91563,1.933833 0.81384,3.155243 1.22154,4.198583 0.4077,1.04334 1.32377,1.90851 1.67941,2.74812 0.35565,0.83961 0.15208,1.65387 -1.37448,2.84943 -1.52656,1.19555 -4.3765,2.7732 -5.13974,4.80963 -0.76323,2.03644 0.55996,4.53015 3.41018,5.75097 2.85023,1.22082 7.22693,1.16993 9.87338,1.60304 2.64645,0.4331 3.5625,1.34915 4.78353,1.24679 1.22103,-0.10236 2.74779,-1.22198 3.7655,-3.28271 1.01771,-2.06072 1.52663,-5.06334 2.62146,-6.4887 1.09482,-1.42535 2.77425,-1.27268 4.07158,-1.52727 1.29733,-0.25458 2.21338,-0.91617 4.30048,0.10223 2.08709,1.0184 5.34418,3.71567 8.24489,4.70753 2.90071,0.99186 5.44531,0.27937 7.96474,0.0505 2.51944,-0.22887 5.01314,0.0256 6.66654,-0.50871 1.6534,-0.53431 2.46767,-1.8575 3.96971,-2.18826 1.50204,-0.33075 3.6904,0.33085 4.32611,-1.04289 0.63572,-1.37373 -0.28034,-4.78349 0.0248,-8.06649 0.30512,-3.28301 1.83188,-6.438312 3.43573,-7.634223 1.60385,-1.195911 3.28328,-0.432534 4.75849,-1.196055 1.47521,-0.76352 2.74751,-3.053653 2.62086,-4.936385 -0.12664,-1.882733 -1.6534,-3.358598 -1.57756,-4.962227 0.0758,-1.603628 1.75527,-3.333956 2.34062,-6.056213 0.58534,-2.722257 0.0764,-6.437366 0.61088,-8.779096 0.53446,-2.341729 2.11211,-3.308675 3.8933,-4.580976 1.7812,-1.272301 3.76598,-2.849953 6.3363,-4.27502 2.57031,-1.425067 5.72561,-2.697366 8.65232,-2.951551 2.92671,-0.254186 5.62398,0.509192 7.88829,0.356244 2.26432,-0.152947 4.09643,-1.221679 6.15801,-1.628668 2.06158,-0.406988 4.35172,-0.152528 5.39452,-1.220826 1.04279,-1.068298 0.83923,-3.460217 1.3991,-5.140298 0.55988,-1.680081 1.88307,-2.647027 2.26483,-4.224074 0.38175,-1.577048 -0.17806,-3.7654 1.04371,-4.962007 1.22178,-1.196606 4.2244,-1.400174 5.95424,-3.181005 1.72984,-1.780831 2.18787,-5.139697 4.14779,-6.972309 1.95992,-1.832612 5.42057,-2.137963 7.25223,-3.511602 1.83166,-1.373638 2.03523,-3.816448 3.63894,-4.987423 1.60371,-1.170974 4.60633,-1.06919 6.20902,-0.279794 1.60269,0.789396 1.80626,2.265261 1.42472,3.206123 -0.38154,0.940862 -1.34848,1.347994 -1.78127,2.188381 -0.4328,0.840387 -0.33101,2.112685 0.6365,3.410339 0.9675,1.297654 2.79961,2.620844 4.93713,3.460254 2.13752,0.83941 4.58034,1.195655 5.92854,2.11223 1.3482,0.916575 1.60266,2.39244 2.44269,2.977056 0.84002,0.584616 2.26499,0.279265 3.10443,1.043316 0.83944,0.764051 1.0939,2.59616 0.68681,3.842399 -0.4071,1.246239 -1.47582,1.907834 -1.37394,3.969719 0.10188,2.061884 1.37418,5.522535 2.9774,9.212308 1.60322,3.689774 3.53711,7.608454 4.35105,10.789117 0.81393,3.180663 0.50858,5.623474 1.32338,8.041028 0.8148,2.417554 2.74869,4.809473 3.68976,7.125066 0.94106,2.315592 0.89017,4.554836 2.26491,6.055858 1.37474,1.501022 4.17379,2.2644 6.4639,3.53708 2.29011,1.272679 4.07133,3.053897 5.90297,2.900723 1.83164,-0.153174 3.71464,-2.239741 4.63073,-2.315602 0.91608,-0.07586 0.86519,1.858033 1.68008,3.384729 0.81489,1.526694 2.49433,2.646314 2.57004,4.096444 0.0757,1.45012 -1.45105,3.23134 -2.31623,5.44562 -0.86518,2.21429 -1.06875,4.86067 0.86583,6.53978 1.93457,1.67912 6.00593,2.39161 9.44126,3.23146 3.43533,0.83985 6.23438,1.80679 8.32088,3.054 2.08649,1.24721 3.46057,2.77397 4.6057,3.53684 1.14513,0.76287 2.06119,0.76287 3.71465,-1.12007 1.65346,-1.88295 4.04538,-5.64896 6.56521,-7.48121 2.51983,-1.83225 5.1662,-1.73047 6.87092,-0.96648 1.70473,0.76398 2.4681,2.18895 3.07857,4.86083 0.61047,2.67187 1.06849,6.59054 1.78115,9.92411 0.71266,3.33356 1.6796,6.08172 1.73018,8.24426 0.0506,2.16254 -0.81459,3.74019 -0.8651,5.36921 -0.0505,1.62901 0.71287,3.30845 1.22157,5.70038 0.5087,2.39193 0.76315,5.49635 0.2032,8.01512 -0.55995,2.51878 -1.93403,4.45267 -2.69741,6.00525 -0.76338,1.55258 -0.91606,2.72309 0.1024,3.35885 1.01846,0.63576 3.20681,0.73754 4.24955,1.32324 1.04274,0.58571 0.94096,1.65444 1.50144,2.44309 0.56048,0.78865 1.78189,1.29757 2.26469,2.26469 0.48281,0.96713 0.22834,2.39211 -0.78892,3.02791 -1.01726,0.63581 -2.79848,0.48313 -4.7584,1.39916 -1.95992,0.91603 -4.09738,2.90082 -4.86062,5.01351 -0.76325,2.11269 -0.15255,4.35193 -0.91605,6.28522 -0.7635,1.9333 -2.90096,3.56184 -3.79156,5.34374 -0.89059,1.78191 -0.53434,3.71581 -0.99244,5.19109 -0.45809,1.47528 -1.73039,2.49312 -0.76292,4.40214 0.96747,1.90903 4.17366,4.70808 6.43786,5.39468 2.2642,0.68659 3.58739,-0.73838 5.75097,-1.04359 2.16359,-0.30521 5.16621,0.50906 6.97259,1.62916 1.80637,1.12011 2.41707,2.54508 4.30021,2.79884 1.88315,0.25376 5.03844,-0.6623 7.98999,-2.21451 2.95156,-1.55221 5.69971,-3.74056 7.07376,-6.28469 1.37405,-2.54413 1.37405,-5.44496 2.85032,-7.2777 1.47628,-1.83275 4.42801,-2.59613 6.46392,-2.49378 2.03591,0.10235 3.15554,1.06929 5.62382,1.4505 2.46828,0.38121 6.28517,0.17764 9.51701,0.94146 3.23184,0.76381 5.87821,2.49413 7.40453,4.42828 1.52633,1.93415 1.93346,4.07161 3.56256,5.77623 1.6291,1.70463 4.47903,2.97692 7.12538,4.88567 2.64635,1.90875 5.08916,4.45335 7.30302,5.6997 2.21385,1.24635 4.19864,1.19546 5.0888,-1.29781 0.89016,-2.49327 0.68659,-7.42978 1.62811,-10.94194 0.94152,-3.51215 3.02809,-5.59872 3.40998,-8.54995 0.38189,-2.95122 -0.9413,-6.76811 -0.15243,-9.38981 0.78886,-2.6217 3.6897,-4.04668 5.03817,-6.48895 1.3485,-2.44227 1.1449,-5.90291 2.239,-10.10195 1.0941,-4.19903 3.486,-9.13553 5.1661,-11.12006 1.6801,-1.98452 2.647,-1.0176 3.5629,0.30574 0.9159,1.32334 1.7811,3.0028 2.7476,2.82422 0.9666,-0.17857 2.0353,-2.21423 2.3918,-4.35139 0.3564,-2.13715 1e-4,-4.37638 0.9166,-5.54751 0.9166,-1.17114 3.1049,-1.27292 5.3182,-2.90142 2.2133,-1.62849 4.4526,-4.78377 7.8376,-6.20882 3.3851,-1.42506 7.9144,-1.11972 10.942,-1.62872 3.0277,-0.509 4.5545,-1.83221 6.6162,-1.47547 2.0617,0.35674 4.6572,2.39243 6.9219,3.35893 2.2646,0.9665 4.1985,0.86472 5.5212,-1.01795 1.3227,-1.88266 2.0351,-5.54687 1.7301,-9.23644 -0.3051,-3.68957 -1.6283,-7.40465 -2.0612,-9.89875 -0.433,-2.4941 0.025,-3.76639 1.6033,-4.55557 1.5783,-0.78917 4.2756,-1.09452 6.0568,-0.63586 1.7812,0.45867 2.6464,1.68008 3.791,1.17069 1.1447,-0.50938 2.5696,-2.74863 4.3005,-2.41737 1.7308,0.33126 3.7665,3.23212 5.6749,4.42744 1.9085,1.19531 3.6897,0.6864 4.5291,-0.4072 0.8395,-1.09359 0.7377,-2.77302 1.6543,-3.28227 0.9167,-0.50924 2.8506,0.15236 3.5117,-0.83971 0.6612,-0.99206 0.051,-3.63844 2.3157,-4.6059 2.2652,-0.96747 7.4052,-0.25499 10.3058,0.8143 2.9007,1.06929 3.5623,2.49427 4.7075,3.07886 1.1453,0.5846 2.7738,0.33015 3.7405,0.89063 0.9667,0.56048 1.272,1.93457 4.5552,4.22452 3.2831,2.28994 9.5428,5.49612 13.4359,6.97164 3.8931,1.47551 5.4199,1.22105 7.5824,-1.62876 2.1625,-2.8498 4.9615,-8.29522 6.9216,-10.86534 1.9601,-2.57012 3.0797,-2.26478 4.1483,-1.37374 1.0685,0.89105 2.0864,2.36695 3.5116,3.51174 1.4252,1.14479 3.2573,1.95905 6.1323,0.73728 2.8749,-1.22176 6.7936,-4.47887 11.0182,-5.90376 4.2247,-1.4249 8.7541,-1.01776 11.5021,0.077 2.7479,1.09476 3.7149,2.876 4.4273,4.53002 0.7123,1.65403 1.1704,3.18077 1.0938,4.6818 -0.077,1.50102 -0.6874,2.97688 -0.127,4.73299 0.5604,1.7561 2.2907,3.79176 4.1226,4.2746 1.8319,0.48285 3.7658,-0.58588 4.6817,-0.0255 0.9159,0.56042 0.8141,2.74877 1.8326,4.47903 1.0185,1.73026 3.1559,3.00253 4.4532,4.37691 1.2974,1.37438 1.7554,2.85023 3.2827,4.35133 1.5272,1.5011 4.1227,3.02785 6.4632,2.54406 2.3404,-0.48378 4.427,-2.97751 6.107,-3.63869 1.6801,-0.66118 2.9524,0.50933 4.0973,2.06171 1.1449,1.55237 2.1627,3.48631 2.5186,5.42006 0.3558,1.93376 0.05,3.86766 0.9922,4.12162 0.9417,0.25396 3.1301,-1.17105 4.4536,-1.50116 1.3234,-0.33011 1.7814,0.43324 2.6974,2.74893 0.916,2.31568 2.29,6.18347 3.7152,8.01496 1.4252,1.83148 2.9011,1.62791 4.3257,0.78825 1.4246,-0.83967 2.7987,-2.31554 4.9367,-3.20624 2.138,-0.8907 5.0388,-1.19605 6.5651,-2.95136 1.5263,-1.75532 1.679,-4.96151 2.3408,-6.89602 0.6618,-1.93452 1.8323,-2.59611 3.3086,-2.7995 1.4763,-0.20339 3.2575,0.0511 3.995,-1.01723 0.7375,-1.0683 0.4321,-3.46022 1.5517,-5.80189 1.1197,-2.34167 3.6643,-4.6318 6.0567,-5.82779 2.3925,-1.19599 4.6317,-1.29778 6.693,-0.78846 2.0613,0.50932 3.9443,1.62895 6.1322,1.42492 2.188,-0.20403 4.6817,-1.73078 5.9793,-3.71507 1.2977,-1.98429 1.3995,-4.4271 0.1786,-5.8525 -1.2209,-1.42539 -3.7655,-1.83252 -6.4883,-3.38438 -2.7229,-1.55186 -5.6238,-4.24916 -7.0239,-6.6157 -1.4,-2.36655 -1.2982,-4.40223 0.7378,-6.05683 2.0361,-1.6546 6.0057,-2.92691 9.0596,-3.43567 3.0538,-0.50875 5.1912,-0.2543 6.9464,-1.09403 1.7552,-0.83974 3.1293,-2.77362 4.4277,-3.30769 1.2985,-0.53407 2.5199,0.33109 5.4716,3.00311 2.9518,2.67202 7.6339,7.15054 11.5017,9.2366 3.8678,2.08607 6.9214,1.78071 8.7784,0.33062 1.8571,-1.45008 2.5187,-4.04553 4.5291,-7.04861 2.0104,-3.00307 5.3692,-6.41279 7.2522,-9.491443 1.883,-3.078651 2.2901,-5.826811 3.1559,-7.124938 0.8658,-1.298128 2.189,-1.145449 3.5631,-0.305229 1.374,0.840219 2.799,2.36694 4.4531,3.842754 1.6541,1.475815 3.5371,2.900774 6.1833,3.103834 2.6462,0.20306 6.056,-0.814797 9.3898,-0.152669 3.3337,0.662127 6.5908,3.003151 10.2298,5.369651 3.6389,2.36649 7.6594,4.75843 11.8072,6.31041 4.1477,1.55198 8.4226,2.26446 11.6029,1.32287 3.1802,-0.9416 5.2667,-3.53705 7.2012,-3.89283 1.9345,-0.35578 3.7157,1.5272 5.2424,2.31546 1.5266,0.78825 2.7989,0.4829 3.8673,-0.91631 1.0683,-1.39921 1.9334,-3.89291 3.9952,-5.06371 2.0618,-1.17081 5.3189,-1.01813 7.125,-1.52678 1.8061,-0.50864 2.1624,-1.67917 3.6644,-1.52646 1.5021,0.15272 4.1485,1.62859 7.2271,1.39911 3.0786,-0.22947 6.5901,-2.16335 8.8806,-2.468053 2.2905,-0.304701 3.3592,1.018473 5.2168,3.385043 1.8577,2.36657 4.504,5.77634 7.0234,7.73528 2.5194,1.95894 4.9113,2.46786 6.641,2.03519 1.7298,-0.43266 2.7985,-1.80674 4.5041,-1.83189 1.7056,-0.0251 4.0466,1.29802 5.1656,2.9522 1.119,1.65418 1.0173,3.63897 2.5956,5.21639 1.5783,1.57743 4.8354,2.74795 6.8964,3.86792 2.061,1.11997 2.9262,2.18873 2.8748,3.96973 -0.052,1.78101 -1.0184,4.27469 -1.1705,5.87808 -0.1521,1.60339 0.5095,2.31589 1.7819,3.48639 1.2724,1.1705 3.1554,2.79905 4.6311,3.46009 1.4757,0.66104 2.5444,0.3557 3.0784,-1.78126 0.5341,-2.13695 0.5341,-6.10652 2.1374,-9.03347 1.6033,-2.92695 4.8095,-4.80997 7.6854,-5.36951 2.8759,-0.55954 5.4205,0.20384 6.7686,2.03636 1.3481,1.83253 1.5008,4.73337 2.7225,5.69968 1.2217,0.96632 3.5118,-6e-4 5.9549,1.22152 2.443,1.22213 5.0385,4.63185 7.4559,6.18348 2.4174,1.55164 4.6567,1.24628 6.5144,1.88303 1.8577,0.63675 3.3335,2.21439 4.6816,2.16305 1.3481,-0.0513 2.5695,-1.73077 3.6135,-2.49414 1.0439,-0.76338 1.9091,-0.6107 2.8757,2.31617 0.9665,2.92687 2.0352,8.62677 3.5879,12.26549 1.5527,3.63872 3.5884,5.21638 6.082,7.86295 2.4937,2.64658 5.4454,6.36173 7.1754,12.39259 1.7299,6.03086 2.2388,14.37713 2.6972,18.85577 0.4585,4.47864 0.8656,5.08932 6.286,6.66659 5.4204,1.57727 15.8533,4.12189 23.1309,7.48121 7.2776,3.35933 11.3999,7.53249 14.1735,9.61859 2.7737,2.0861 4.1987,2.0861 5.9031,0.9919 1.7044,-1.0942 3.6892,-3.28251 5.4964,-3.43468 1.8072,-0.15216 3.4357,1.73082 4.275,3.61386 0.8393,1.88305 0.8902,3.76605 0.1268,5.54681 -0.7634,1.78077 -2.3411,3.46021 -2.8241,4.58034 -0.4829,1.12012 0.1278,1.67993 4.7592,3.05371 4.6314,1.37379 13.2831,3.56215 18.5499,3.6638 5.2668,0.10165 7.1498,-1.88313 9.8477,-2.77376 2.698,-0.89062 6.2095,-0.68705 8.1939,0.1151 1.9845,0.80216 2.4426,2.20168 4.8857,5.82781 2.4431,3.62614 6.8707,9.4787 10.5552,11.92239 3.6844,2.44369 6.6257,1.47973 8.8884,1.21393 2.2627,-0.26579 3.846,0.16602 5.7172,1.74985 1.8712,1.58383 4.0304,4.31879 5.7217,5.57771 1.6913,1.25891 2.9149,1.04298 4.7499,0.0353 1.8351,-1.00765 4.2821,-2.80693 6.5497,-3.67053 2.2676,-0.8636 4.3548,-0.79163 6.3702,-0.17951 2.0153,0.61212 3.9586,1.7637 4.7855,2.77128 0.827,1.00758 0.5392,1.87122 -0.3245,3.20251 -0.8636,1.3313 -2.3031,3.13063 -2.9148,6.7298 -0.6117,3.59917 -0.3958,8.99707 -0.8997,12.84735 -0.504,3.85027 -1.7275,6.15337 -2.123,8.0251 -0.3956,1.87172 0.036,3.31118 0.1799,4.57056 0.1437,1.25938 -2e-4,2.33896 -0.8992,2.59063 -0.8991,0.25167 -2.5544,-0.32409 -3.8147,0.3237 -1.2602,0.64779 -2.1239,2.51907 -3.203,2.66333 -1.079,0.14426 -2.3745,-1.43914 -3.5622,-2.1235 -1.1876,-0.68435 -2.2671,-0.46845 -3.4912,0.79134 -1.224,1.2598 -2.5915,3.56288 -3.3111,5.61447 -0.7197,2.05159 -0.7917,3.85089 -2.2672,6.33355 -1.4755,2.48266 -4.3544,5.64942 -6.6936,9.03238 -2.3393,3.38295 -4.1386,6.98155 -4.8941,10.0768 -0.7556,3.09525 -0.4677,5.68625 -0.8994,7.26902 -0.4317,1.58278 -1.5832,2.15854 -1.9072,3.77865 -0.324,1.62011 0.1798,4.28307 -0.4681,6.54967 -0.6479,2.2666 -2.4472,4.13788 -4.4619,5.0016 -2.0147,0.86372 -4.2458,0.71978 -5.5779,3.45525 -1.3321,2.73547 -1.7639,8.34929 -2.3757,11.47965 -0.6117,3.13036 -1.4033,3.77805 -1.6912,4.89428 -0.2879,1.11622 -0.072,2.69961 0.7201,4.319 0.7921,1.6194 2.1596,3.27477 2.7709,5.218 0.6113,1.94323 0.4674,4.17436 -0.2524,5.93727 -0.7197,1.7629 -2.0152,3.05839 -2.699,4.39039 -0.6837,1.33199 -0.7557,2.69945 -1.4395,4.17451 -0.6838,1.47507 -1.9793,3.05845 -3.4541,3.70625 -1.4749,0.64779 -3.1303,0.3599 -4.1025,1.72777 -0.9723,1.36788 -1.2602,4.39071 -0.3959,6.62185 0.8643,2.23115 2.8796,3.67062 4.0667,5.57809 1.187,1.90746 1.5469,4.28255 1.1509,6.33336 -0.396,2.0508 -1.5476,3.77811 -2.8071,7.05318 -1.2596,3.27506 -2.6271,8.09719 -4.2099,10.472 -1.5829,2.37482 -3.3822,2.30284 -5.3976,2.59063 -2.0154,0.28778 -4.2466,0.93555 -5.7945,2.12341 -1.5478,1.18786 -2.4115,2.9152 -4.0308,4.67831 -1.6192,1.76312 -3.9943,3.56238 -6.1895,5.18181 -2.1952,1.61943 -4.2104,3.05887 -5.794,5.47037 -1.5836,2.41149 -2.7352,5.79419 -3.9585,7.84504 -1.2233,2.05086 -2.5188,2.77059 -3.9579,3.02266 -1.4391,0.25207 -3.0225,0.0362 -4.9304,1.36769 -1.9079,1.33153 -4.139,4.2104 -6.3703,8.24115 -2.2312,4.03074 -4.4624,9.21275 -5.5778,15.79865 -1.1155,6.5859 -1.1155,14.5748 -1.6914,21.48419 -0.5759,6.9094 -1.7275,12.73913 -2.6991,19.90064 -0.9716,7.16151 -1.7633,15.65421 -1.6187,20.18841 0.1446,4.5342 1.2242,5.10998 2.3757,5.36154 1.1514,0.25156 2.3749,0.17959 2.7342,0.97167 0.3594,0.79208 -0.1445,2.44743 -1.0437,3.45464 -0.8992,1.00721 -2.1947,1.36708 -2.9868,2.41121 -0.7921,1.04413 -1.08,2.77146 -2.1235,4.17447 -1.0434,1.403 -2.8427,2.48259 -5.2535,3.1304 -2.4109,0.64781 -5.4337,0.86372 -7.6649,0.10856 -2.2312,-0.75517 -3.6706,-2.48247 -6.3336,-3.20279 -2.6631,-0.72032 -6.5496,-0.43243 -9.0327,-1.00763 -2.4832,-0.5752 -3.5628,-2.01465 -5.1466,-1.79929 -1.5838,0.21536 -3.671,2.08664 -5.5058,2.95038 -1.8348,0.86375 -3.4182,0.7198 -4.0664,1.22417 -0.6481,0.50436 -0.3603,1.65591 -1.9073,2.01526 -1.5471,0.35934 -4.9298,-0.0725 -7.5211,-0.0367 -2.5912,0.0358 -4.3905,0.53964 -5.5065,1.87165 -1.116,1.332 -1.5479,3.49115 -3.2386,3.74301 -1.6907,0.25185 -4.6416,-1.40353 -6.9454,-1.25986 -2.3038,0.14367 -3.9592,2.08693 -5.9739,3.0945 -2.0147,1.00757 -4.3898,1.07955 -5.8656,0.32443 -1.4757,-0.75512 -2.0515,-2.33851 -3.2748,-3.02291 -1.2233,-0.6844 -3.0946,-0.46848 -3.8147,1.90728 -0.7202,2.37576 -0.2883,6.91001 -0.7202,9.68041 -0.4318,2.77039 -1.7273,3.778 -3.8141,3.27461 -2.0868,-0.50339 -4.9656,-2.51862 -7.9169,-2.95095 -2.9512,-0.43233 -5.9741,0.71925 -8.4929,1.4e-4 -2.5189,-0.71911 -4.5342,-3.31014 -6.9094,-4.42632 -2.3751,-1.11617 -5.11,-0.75632 -7.1974,-1.87128 -2.0873,-1.11496 -3.5268,-3.70595 -4.1749,-6.1532 -0.6481,-2.44725 -0.5042,-4.75036 -1.1514,-6.5497 -0.6472,-1.79935 -2.0867,-3.09483 -4.03,-3.74307 -1.9433,-0.64824 -4.3904,-0.64824 -6.2621,-3.6706 -1.8717,-3.02236 -3.1671,-9.06802 -5.2182,-14.25015 -2.051,-5.18213 -4.8579,-9.50049 -6.3697,-13.99892 -1.5118,-4.49843 -1.7277,-9.17662 -2.843,-13.09914 -1.1153,-3.92252 -3.1305,-7.08928 -5.6857,-8.0616 -2.5552,-0.97232 -5.65,0.25121 -8.8885,0.17955 -3.2385,-0.0717 -6.6211,-1.43909 -9.1764,-3.45404 -2.5554,-2.01496 -4.2827,-4.6779 -5.0028,-7.593 -0.7202,-2.91509 -0.4323,-6.08186 -1.4033,-7.91751 -0.971,-1.83565 -3.2022,-2.33947 -6.693,-4.57037 -3.4908,-2.2309 -8.2409,-6.18932 -12.0197,-7.98917 -3.7787,-1.79985 -6.5856,-1.43999 -7.9896,0.64783 -1.4039,2.08783 -1.4039,5.90235 -2.0512,7.80914 -0.6472,1.9068 -1.9427,1.9068 -3.3821,1.29544 -1.4395,-0.61137 -3.0229,-1.83489 -4.7508,-1.54742 -1.7279,0.28747 -3.5992,2.08679 -5.47,2.98647 -1.8709,0.89968 -3.7421,0.89968 -5.3255,0.36032 -1.5834,-0.53935 -2.8789,-1.61895 -4.139,-1.58341 -1.2601,0.0355 -2.4836,1.18707 -3.0954,2.91497 -0.6118,1.72791 -0.6118,4.03102 -1.3316,6.18984 -0.7198,2.15882 -2.1593,4.17401 -4.6058,5.21753 -2.4466,1.04352 -5.9012,1.11549 -9.2839,0.0363 -3.3828,-1.07922 -6.6935,-3.31035 -9.3387,-4.1925 -2.6453,-0.88216 -4.6245,-0.41435 -6.874,0.89924 -2.2495,1.31359 -4.7685,3.47274 -7.413,4.28259 -2.6445,0.80986 -5.4155,0.27005 -8.637,2.48328 -3.2215,2.21323 -6.892,7.17925 -9.7884,9.46444 -2.8963,2.28519 -5.0195,1.88934 -6.8549,0.79214 -1.8355,-1.0972 -3.3829,-2.89649 -3.8872,-4.89395 -0.5044,-1.99746 0.035,-4.19261 -3.3108,-6.11814 -3.3461,-1.92553 -10.5793,-3.58089 -16.7514,-3.52713 -6.172,0.0538 -11.2821,1.8171 -14.5569,1.47589 -3.2747,-0.34121 -4.7141,-2.78825 -6.8011,-4.48002 -2.087,-1.69177 -4.822,-2.62742 -6.5678,-4.49837 -1.7458,-1.87095 -2.5015,-4.67787 -4.8586,-5.21834 -2.357,-0.54048 -6.3155,1.18686 -10.04,-0.0541 -3.7244,-1.24094 -7.2151,-5.45133 -14.9164,-6.83739 -7.7012,-1.38606 -19.6126,0.0534 -28.9693,1.5648 -9.3567,1.51142 -16.1581,3.09481 -22.1681,5.36201 -6.0101,2.26719 -11.228,5.21802 -15.1502,6.63961 -3.9223,1.4216 -6.5493,1.31364 -8.9064,0.52229 -2.3571,-0.79134 -4.4442,-2.26677 -6.5861,-1.45735 -2.1419,0.80942 -4.337,3.90424 -6.2617,4.82222 -1.9247,0.91798 -3.5801,-0.34157 -4.7143,0.0722 -1.1342,0.41378 -1.746,2.50097 -1.4936,4.33655 0.2524,1.83558 1.368,3.41897 1.6734,5.59602 0.3054,2.17705 -0.1983,4.94798 -2.2675,8.07847 -2.0693,3.13049 -5.7038,6.62113 -7.6652,9.50052 -1.9613,2.87938 -2.2492,5.1465 -3.8683,6.81937 -1.6191,1.67287 -4.5699,2.75244 -6.0097,4.55241 -1.4397,1.79998 -1.3677,4.31901 -2.195,5.614 -0.8272,1.29498 -2.5545,1.36696 -3.8507,2.51884 -1.2961,1.15188 -2.1598,3.38301 -2.0873,5.25466 0.072,1.87165 1.08,3.38306 1.4035,5.2902 0.3234,1.90714 -0.036,4.21025 -0.9002,7.19705 -0.8637,2.98679 -2.2312,6.65737 -4.1384,9.67999 -1.9072,3.02261 -4.3543,5.39771 -5.7578,8.24114 -1.4036,2.84343 -1.7634,6.15415 -3.0228,8.49277 -1.2594,2.33862 -3.4185,3.70611 -4.7143,5.002 -1.2957,1.2959 -1.7276,2.51942 -2.807,3.77864 -1.0794,1.25921 -2.8068,2.55468 -3.8865,5.0743 -1.0797,2.51961 -1.5116,6.26216 -3.3107,8.96064 -1.7991,2.69849 -4.9659,4.35386 -9.212,3.59856 -4.246,-0.7553 -9.572,-3.9221 -12.6316,-4.71394 -3.0595,-0.79184 -3.8512,0.79155 -4.6069,2.33902 -0.7558,1.54747 -1.4755,3.05887 -2.8424,3.7784 -1.3669,0.71953 -3.3822,0.64756 -4.4983,1.69162 -1.1161,1.04407 -1.3321,3.20322 -4.5703,3.27493 -3.2382,0.0717 -9.4998,-1.94353 -12.5592,-1.90718 -3.0594,0.0364 -2.9155,2.12355 -3.0955,4.39058 -0.1801,2.26704 -0.6839,4.71409 -1.9074,6.98093 -1.2235,2.26684 -3.1667,4.354 -6.2975,6.873 -3.13077,2.51901 -7.44909,5.46987 -9.03227,7.95364 -1.58318,2.48377 -0.43162,4.49898 -0.93527,5.43408 -0.50364,0.9351 -2.6628,0.79116 -3.99494,1.69116 -1.33213,0.89999 -1.83593,2.84323 -2.91497,2.95134 -1.07904,0.10811 -2.7344,-1.61922 -4.85787,-1.97969 -2.12346,-0.36047 -4.71446,0.64714 -8.06124,1.8707 -3.34678,1.22357 -7.44919,2.66301 -9.64473,4.46289 -2.19554,1.79989 -2.48343,3.95905 -3.45447,4.93034 -0.97105,0.97128 -2.62641,0.75536 -4.24648,2.26697 -1.62008,1.51161 -3.20346,4.75035 -5.5781,6.6214 -2.37465,1.87104 -5.54142,2.37485 -7.41296,1.69175 -1.87154,-0.68311 -2.44732,-2.55439 -1.94348,-3.8866 0.50385,-1.33221 2.08724,-2.12391 2.6989,-3.6347 0.61166,-1.5108 0.2518,-3.74194 -2.0869,-6.36916 -2.3387,-2.62723 -6.65702,-5.65005 -9.50064,-6.08214 -2.84362,-0.43209 -4.21109,1.72707 -6.69364,2.84252 -2.48255,1.11545 -6.08115,1.18742 -8.78071,2.33908 -2.69956,1.15167 -4.49886,3.3828 -6.2618,3.16738 -1.76295,-0.21543 -3.49027,-2.87839 -2.98682,-5.64997 0.50346,-2.77157 3.23839,-5.65045 3.34678,-8.63685 0.10839,-2.9864 -2.41063,-6.08119 -5.36142,-8.42061 -2.95079,-2.33941 -6.33347,-3.9228 -8.85309,-4.06707 -2.51963,-0.14427 -4.17498,1.15123 -5.32673,2.69901 -1.15176,1.54779 -1.7995,3.34709 -3.8141,3.31113 -2.01459,-0.036 -5.39728,-1.90724 -7.77263,-3.88628 -2.37535,-1.97904 -3.74282,-4.06623 -3.9232,-5.86605 -0.18039,-1.79981 0.82722,-3.31122 0.36002,-4.78639 -0.4672,-1.47517 -2.41045,-2.91461 -4.17431,-3.02303 -1.76386,-0.10842 -3.34724,1.1151 -5.1103,0.21604 -1.76307,-0.89906 -3.70632,-3.92189 -7.16152,-2.37492 -3.45519,1.54697 -8.42126,7.66459 -13.45912,11.587 -5.03785,3.92242 -10.14786,5.64975 -12.55921,7.98956 -2.41136,2.33981 -2.12347,5.29066 -3.27484,7.23331 -1.15136,1.94265 -3.74236,2.87828 -4.2101,4.71432 -0.46774,1.83604 1.18762,4.57098 1.1152,7.26954 -0.0724,2.69855 -1.87172,5.36151 -2.8793,9.35646 -1.00757,3.99495 -1.22349,9.32088 -2.7709,13.27894 -1.54741,3.95807 -4.42629,6.54906 -6.69314,6.51366 -2.26685,-0.0354 -3.9222,-2.69837 -5.57757,-3.88659 -1.65537,-1.18821 -3.31073,-0.90032 -4.96658,0.2514 -1.65585,1.15172 -3.31121,3.16694 -9.46448,3.92262 -6.15326,0.75569 -16.80513,0.25188 -23.35526,1.25952 -6.55014,1.00764 -8.99719,3.52665 -11.51576,4.71424 -2.51856,1.18758 -5.10956,1.04363 -6.87354,2.62739 -1.76397,1.58376 -2.69961,4.89446 -4.71424,5.39834 -2.01463,0.50388 -5.10943,-1.79922 -9.53595,-2.77131 -4.42653,-0.97208 -10.18429,-0.61223 -14.03493,-1.69127 -3.85063,-1.07904 -5.79388,-3.59806 -7.48578,-3.63443 -1.69191,-0.0364 -3.13135,2.41069 -5.00213,3.70603 -1.87078,1.29534 -4.17389,1.43929 -5.97328,0.64815 -1.7994,-0.79114 -3.09489,-2.51846 -4.71478,-2.15907 -1.6199,0.3594 -3.56314,2.80644 -6.80137,2.51884 -3.23822,-0.2876 -7.77246,-3.31042 -10.79594,-4.06652 -3.02347,-0.75609 -4.53489,0.75532 -5.93849,2.98677 -1.4036,2.23144 -2.69909,5.18229 -5.07354,5.86606 -2.37445,0.68378 -5.82911,-0.89961 -9.50014,-0.93596 -3.67102,-0.0363 -7.55751,1.47506 -10.79602,1.43952 -3.2385,-0.0355 -5.8295,-1.61893 -7.95341,-1.11532 -2.1239,0.50361 -3.77925,3.09461 -6.08178,3.34677 -2.30253,0.25216 -5.25338,-1.83502 -8.13302,-0.21579 -2.87963,1.61924 -5.68654,6.94517 -6.47783,10.79619 -0.79129,3.85102 0.43223,6.2261 0.10795,8.78069 -0.32428,2.55459 -2.19555,5.28953 -5.14598,6.83682 -2.95043,1.54728 -6.98086,1.90714 -9.32055,3.16706 -2.33969,1.25991 -2.98744,3.41908 -2.23105,5.3625 0.75639,1.94342 2.91555,3.67075 3.9586,6.33385 1.04306,2.6631 0.97108,6.26171 0.0714,8.85226 -0.89965,2.59055 -2.62698,4.17393 -3.20271,6.98152 -0.57572,2.80758 5e-5,6.83802 0.17987,10.47261 0.17982,3.6346 -0.0361,6.87334 1.15213,8.92433 1.18822,2.05099 3.77921,2.91465 5.47032,4.06663 1.69112,1.15199 2.48281,2.59143 4.35433,3.34657 1.87152,0.75514 4.82238,0.82711 6.29733,2.23111 1.47494,1.404 1.47494,4.13893 2.98701,6.00995 1.51207,1.87102 4.5349,2.87863 5.61379,4.53412 1.07889,1.65549 0.21522,3.95859 -2.26721,4.60621 -2.48243,0.64762 -6.58484,-0.35999 -11.04732,-0.9359 -4.46247,-0.57592 -9.2846,-0.71986 -12.45177,-0.39609 -3.16718,0.32377 -4.67859,1.11547 -5.93842,2.44727 -1.25983,1.33181 -2.26744,3.20308 -2.77115,5.32664 -0.50372,2.12356 -0.50372,4.49864 -2.05097,6.44134 -1.54726,1.9427 -4.64206,3.45411 -7.70103,5.14552 -3.05897,1.69141 -6.0818,3.56268 -10.25606,5.00217 -4.17426,1.43949 -9.50019,2.4471 -14.50219,1.65577 -5.002,-0.79133 -9.68018,-3.38232 -15.29459,-2.95087 -5.6144,0.43145 -12.16385,3.8861 -17.05773,4.21051 -4.89388,0.32441 -8.13263,-2.48249 -11.11961,-3.81449 -2.98699,-1.33199 -5.72193,-1.18805 -8.38539,-0.0365 -2.66347,1.15158 -5.25446,3.31073 -11.40803,5.93774 -6.15357,2.627 -15.86979,5.7218 -22.81506,7.19737 -6.94528,1.47558 -11.11966,1.33163 -14.32248,0.28844 -3.20283,-1.04319 -5.43397,-2.98643 -8.42092,-4.03049 -2.98694,-1.04406 -6.72949,-1.188 -9.06924,-0.54013 -2.33974,0.64788 -3.27538,2.08733 -5.11013,2.73499 -1.83474,0.64766 -4.56967,0.50371 -6.80092,-0.53942 -2.23126,-1.04313 -3.95858,-2.98637 -8.63684,-4.53426 -4.67827,-1.54789 -12.3073,-2.69944 -18.53316,-3.05942 -6.22587,-0.35999 -11.04799,0.0718 -14.21528,1.00754 -3.16729,0.9357 -4.6787,2.37514 -6.5135,2.95101 -1.8348,0.57587 -3.99396,0.28798 -5.50567,-0.71914 -1.51171,-1.00712 -2.37537,-2.73445 -3.85068,-3.52679 -1.47531,-0.79233 -3.5625,-0.64839 -5.43439,0.89927 -1.87188,1.54765 -3.52724,4.4985 -5.6138,5.57812 -2.08656,1.07961 -4.60558,0.28792 -7.19695,0.32363 -2.59137,0.0357 -5.25433,0.89937 -8.42091,0.7557 -3.16658,-0.14367 -6.83715,-1.29522 -10.25627,-1.22353 -3.41911,0.0717 -6.58587,1.36719 -9.03269,1.3677 -2.44681,5.2e-4 -4.17413,-1.29498 -5.97387,-1.43943 -1.79974,-0.14446 -3.67101,0.86315 -7.3053,0.2517 -3.63429,-0.61145 -9.03219,-2.84258 -13.38666,-5.18158 -4.35447,-2.33899 -7.66519,-4.78604 -9.39309,-7.34102 -1.72789,-2.55497 -1.87184,-5.21794 -3.49084,-6.44204 -1.61899,-1.22411 -4.71378,-1.00819 -7.48483,-2.51908 -2.77105,-1.51088 -5.2181,-4.74962 -8.34884,-6.6574 -3.13074,-1.90777 -6.94525,-2.48355 -9.71679,-1.97983 -2.77154,0.50373 -4.49887,2.08711 -6.47765,1.90764 -1.97879,-0.17946 -4.20992,-2.12271 -4.93028,-4.17416 -0.72036,-2.05145 0.0713,-4.21061 -0.50377,-5.65014 -0.5751,-1.43953 -2.51834,-2.15925 -3.02285,-3.95854 -0.50451,-1.79928 0.43112,-4.67816 -0.86376,-7.37709 -1.29489,-2.69893 -4.82152,-5.21795 -6.33361,-7.70109 -1.51208,-2.48313 -1.00828,-4.93018 -2.44723,-6.08216 -1.43894,-1.15197 -4.82162,-1.00803 -7.12528,-0.28824 -2.30366,0.71978 -3.52718,2.01528 -4.96612,1.94373 -1.43894,-0.0715 -3.0943,-1.51097 -3.38282,-3.63441 -0.28851,-2.12344 0.79106,-4.93035 -0.50384,-7.73719 -1.2949,-2.80683 -4.96547,-5.61374 -7.77243,-7.23345 -2.80696,-1.6197 -4.7502,-2.05153 -5.36265,-3.23897 -0.61245,-1.18744 0.10727,-3.13067 -1.69145,-5.68563 -1.79871,-2.55495 -6.11703,-5.72172 -9.17624,-9.50018 -3.05921,-3.77846 -4.85851,-8.16875 -9.9324,-11.04822 -5.0739,-2.87947 -13.42265,-4.24693 -18.38902,-6.15377 -4.96638,-1.90683 -6.54976,-4.35388 -9.35688,-4.78639 -2.80712,-0.43251 -6.83756,1.15088 -10.00408,1.583 -3.16651,0.43213 -5.46962,-0.28759 -7.91728,0.39594 -2.44766,0.68353 -5.03866,2.77073 -6.90979,2.41148 -1.87113,-0.35924 -3.02269,-3.16615 -5.3615,-5.21779 -2.33882,-2.05164 -5.86546,-3.34714 -8.817,-2.77154 -2.95154,0.5756 -5.32662,3.02265 -7.2696,2.80729 -1.94298,-0.21536 -3.45439,-3.09425 -3.16676,-5.47001 0.28762,-2.37576 2.37482,-4.24704 2.2314,-5.93804 -0.14342,-1.69099 -2.51849,-3.2024 -2.69891,-4.71429 -0.18041,-1.51189 1.8348,-3.0233 2.01506,-4.89401 0.18025,-1.87071 -1.47511,-4.10184 -1.18761,-6.33361 0.2875,-2.23176 2.51864,-4.46289 2.05107,-8.78076 -0.46756,-4.31787 -3.63432,-10.72338 -8.16843,-14.64641 -4.5341,-3.92302 -10.435799,-5.36246 -14.646395,-7.52131 -4.210595,-2.15885 -6.729615,-5.03773 -7.773741,-8.34864 -1.044127,-3.31091 -0.612294,-7.05346 -2.339264,-11.8756 -1.726971,-4.82213 -5.613462,-10.72384 -6.765503,-15.94225 -1.152041,-5.21841 0.431345,-9.75265 -0.57574,-11.94814 -1.007085,-2.1955 -4.605686,-2.05155 -7.628854,-5.28981 -3.023168,-3.23825 -5.470214,-9.85968 -5.93826,-13.96277 -0.468046,-4.1031 1.043364,-5.68648 0.216254,-7.1617 -0.827111,-1.47522 -3.99388,-2.84269 -5.973541,-4.60572 -1.97966,-1.76303 -2.771352,-3.92219 -3.851004,-4.64262 -1.079652,-0.72042 -2.44712,-7e-4 -4.030174,-0.2881 -1.583054,-0.2874 -3.382356,-1.5829 -4.246611,-4.20989 -0.864256,-2.62699 -0.792284,-6.58545 -0.144317,-8.8892 0.647967,-2.30374 1.871492,-2.95149 2.914828,-4.2467 1.043336,-1.29522 1.906998,-3.23846 1.65553,-5.36134 -0.251467,-2.12289 -1.618934,-4.42599 -1.223149,-6.01011 0.395784,-1.58412 2.554943,-2.44778 2.554965,-5.03817 2.1e-5,-2.59038 -2.15914,-6.9087 -0.64794,-11.58763 1.5112,-4.67894 6.693185,-9.71698 8.708745,-13.31507 2.01556,-3.59809 0.864003,-5.75726 1.835834,-6.90945 0.97183,-1.15219 4.066627,-1.29614 5.577606,-2.91504 1.510978,-1.6189 1.439006,-4.7137 3.058777,-6.69358 1.619771,-1.97988 4.930483,-2.84354 6.873324,-4.06673 1.942841,-1.2232 2.518616,-2.80658 1.799284,-5.46932 -0.719332,-2.66275 -2.734547,-6.40529 -3.958363,-10.29195 -1.223816,-3.88666 -1.655647,-7.91709 -1.008026,-12.59566 0.647622,-4.67857 2.374951,-10.0045 4.066843,-12.81184 1.691892,-2.80734 3.347249,-3.09523 3.706943,-4.42609 0.359693,-1.33086 -0.57594,-3.70593 -0.324214,-5.50592 0.251727,-1.79999 1.691171,-3.02352 2.26696,-5.21816 0.575789,-2.19465 0.287901,-5.36142 1.799318,-8.67276 1.511418,-3.31135 4.822132,-6.76601 6.297641,-10.50814 1.475509,-3.74213 1.11565,-7.77256 5.793939,-15.43834 4.678289,-7.66579 14.394515,-18.9654 19.540555,-25.19096 5.14605,-6.22555 5.72182,-7.37711 5.93787,-9.42806 0.21604,-2.05094 0.0721,-5.0018 1.61983,-7.01769 1.54774,-2.01589 4.78648,-3.09548 9.03264,-6.58612 4.24616,-3.49064 9.50012,-9.39234 13.63912,-12.41528 4.13901,-3.02294 7.16184,-3.16689 9.21304,-2.51853 2.0512,0.64836 3.13078,2.0878 6.15387,3.31092 3.0231,1.22311 7.98917,2.23072 10.68777,3.45476 2.69861,1.22404 3.13045,2.66348 5.39806,3.88659 2.26761,1.22311 6.37001,2.23072 8.6007,3.81458 2.23069,1.58387 2.59055,3.74303 3.74261,4.96609 1.15206,1.22307 3.09531,1.51095 4.60653,2.62707 1.51123,1.11612 2.59081,3.05937 4.64224,3.99442 2.05144,0.93504 5.07426,0.86307 8.09686,-7.1e-4 3.0226,-0.86378 6.04543,-2.51914 8.85218,-5.14602 2.80674,-2.62688 5.39774,-6.22548 8.74522,-7.12496 3.34748,-0.89948 7.44988,0.89982 10.72442,4.03105 3.27454,3.13122 5.72159,7.59348 7.62868,9.35615 1.9071,1.76267 3.27455,0.82704 4.92988,-0.54042 1.65532,-1.36746 3.59857,-3.16676 6.29812,-3.95841 2.69955,-0.79166 6.1542,-0.57574 8.34877,-1.65514 2.19457,-1.07939 3.1302,-3.45447 4.75026,-4.57028 1.62006,-1.11582 3.92317,-0.97188 5.61392,-2.23122 1.69075,-1.25934 2.77033,-3.9223 5.2541,-5.07408 2.48377,-1.15178 6.37026,-0.79192 9.17674,-1.3678 2.80647,-0.57588 4.53381,-2.0873 6.65754,-2.77098 2.12373,-0.68369 4.64275,-0.53975 9.35649,-5.18207 4.71374,-4.64233 11.62306,-14.07067 17.3815,-18.96499 5.75845,-4.89432 10.36466,-5.25417 14.14671,-4.89121 3.78204,0.36296 6.73942,1.44819 8.93058,2.04153 z"
       id="path5371"
       inkscape:path-effect="#path-effect5373"
       inkscape:original-d="m 341.38975,332.53438 c 1.426,0.10278 2.851,0.20457 4.275,0.30536 0.81531,-1.32225 1.62958,-2.64544 2.44286,-3.96965 -0.20257,-1.7294 -0.40614,-3.45972 -0.61071,-5.19108 1.42603,-2.44191 2.851,-4.88472 4.275,-7.32858 0.30637,-1.52582 0.61172,-3.05258 0.91608,-4.58037 -0.40615,-1.83118 -0.81329,-3.66329 -1.22143,-5.49643 1.52781,-1.7294 3.05457,-3.45972 4.58036,-5.19108 -0.40615,-2.5437 -0.81329,-5.08829 -1.22143,-7.63394 1.52782,-1.11867 3.05458,-2.23829 4.58036,-3.35893 1.32425,-1.11867 2.64743,-2.23829 3.96965,-3.35894 3.15643,0.30637 6.31172,0.61172 9.46609,0.91608 0.40815,0.61172 0.81528,1.22243 1.22143,1.83214 1.01887,-1.22045 2.03671,-2.44186 3.05357,-3.66429 1.47693,0.76441 2.95279,1.52779 4.42769,2.29018 0.86619,0.61173 1.73136,1.22243 2.59554,1.83215 2.26578,-0.48249 4.53047,-0.96597 6.7942,-1.45045 2.64749,-1.62761 5.29387,-3.25615 7.9393,-4.88572 2.21488,-1.62761 4.42868,-3.25615 6.64152,-4.88572 1.40059,-3.96873 2.80012,-7.9383 4.19867,-11.90895 1.45148,-3.17987 2.9019,-6.36061 4.35135,-9.54242 -0.30437,-3.10353 -0.60972,-6.20794 -0.91608,-9.3134 1.06978,-1.16957 2.13851,-2.34008 3.20626,-3.51162 -1.52582,-2.28922 -3.05258,-4.57936 -4.58037,-6.87054 1.32425,-1.42403 2.64744,-2.84901 3.96965,-4.27501 1.78229,-1.98386 3.56351,-3.96865 5.34376,-5.95447 -0.66062,-1.47492 -1.32222,-2.95079 -1.98482,-4.42768 -0.20258,-2.28923 -0.40615,-4.57937 -0.61072,-6.87055 1.62961,-2.28923 3.25815,-4.57936 4.88572,-6.87054 0.8153,-3.25622 1.62957,-6.5133 2.44286,-9.77145 -0.76241,-1.83118 -1.52579,-3.66329 -2.29018,-5.49643 -0.10079,-1.7294 -0.20257,-3.45972 -0.30536,-5.19108 1.47693,-2.34012 2.95279,-4.68115 4.42769,-7.02322 2.34212,-1.22046 4.68315,-2.44186 7.02322,-3.6643 -0.0499,-2.23833 -0.10079,-4.47757 -0.15268,-6.71786 2.74927,-1.6785 5.49744,-3.35793 8.24466,-5.0384 2.59659,0.71351 5.19207,1.426 7.78661,2.1375 2.69838,-1.27135 5.39565,-2.54364 8.09198,-3.81697 2.44391,-0.30436 4.88672,-0.60971 7.32858,-0.91607 3.41089,-2.08565 6.82065,-4.17222 10.22948,-6.25983 2.64748,-0.45705 5.29386,-0.91507 7.93929,-1.37411 2.90196,-1.83118 5.8028,-3.66329 8.70269,-5.49644 0.8662,-2.18743 1.73136,-4.37579 2.59554,-6.56518 1.32425,-0.66062 2.64744,-1.32222 3.96965,-1.98483 -0.35526,-1.06777 -0.7115,-2.1365 -1.06875,-3.20625 1.17156,-1.7294 2.34208,-3.45972 3.51161,-5.19108 -0.0499,-2.95085 -0.10078,-5.90258 -0.15268,-8.85537 -1.01687,-0.8642 -2.03471,-1.72936 -3.05357,-2.59554 1.37513,-1.11866 2.74922,-2.23829 4.12233,-3.35893 2.13854,1.37514 4.276,2.74922 6.4125,4.12233 1.83319,-0.10079 3.66529,-0.20258 5.49644,-0.30536 0.25547,-1.06777 0.50993,-2.1365 0.76339,-3.20626 1.83319,-1.16956 3.66529,-2.34007 5.49644,-3.51161 0.50994,-2.95085 1.01886,-5.90258 1.52679,-8.85537 1.22245,-0.15168 2.44386,-0.30435 3.66429,-0.45803 0.56083,-2.23834 1.12064,-4.47758 1.67946,-6.717869 1.37514,0.05189 2.74922,0.102786 4.12233,0.152679 1.12067,-2.289228 2.24029,-4.579364 3.35894,-6.870546 2.24033,-0.813303 4.47957,-1.627573 6.71786,-2.44286 -1.6276,-3.663364 -3.25615,-7.327581 -4.88572,-10.992872 1.47692,-0.864197 2.95279,-1.729359 4.42768,-2.595539 1.32425,-1.780288 2.64744,-3.561505 3.96965,-5.343757 1.88408,-0.100788 3.76708,-0.202572 5.64912,-0.305358 1.6296,-0.558833 3.25815,-1.118644 4.88572,-1.679467 0.71351,1.985864 1.426,3.970649 2.1375,5.954473 1.17156,0.509939 2.34208,1.018858 3.51161,1.526788 3.30911,-0.355258 6.61708,-0.711501 9.92412,-1.068752 2.95285,-1.831182 5.90458,-3.663291 8.85537,-5.496436 1.22246,1.324243 2.44386,2.647432 3.66429,3.969648 2.34213,-0.406151 4.68315,-0.813286 7.02323,-1.22143 2.34212,2.240334 4.68315,4.479578 7.02322,6.717866 1.93497,-0.355257 3.86886,-0.711501 5.8018,-1.068751 2.24033,-2.492803 4.47957,-4.986507 6.71786,-7.48126 4.88682,-1.729394 9.77244,-3.459719 14.65716,-5.191079 4.58146,0.153682 9.16173,0.306358 13.74109,0.458037 1.01888,0.815303 2.03672,1.629573 3.05358,2.44286 1.57871,-0.25347 3.15636,-0.507929 4.73304,-0.763394 0.8153,-0.762409 1.62958,-1.525788 2.44286,-2.290181 3.30911,-0.04989 6.61708,-0.100786 9.92412,-0.152679 1.52782,2.291227 3.05458,4.581363 4.58037,6.870545 10e-4,6.515425 10e-4,13.029589 0,19.542883 1.93497,2.647485 3.86886,5.293865 5.80179,7.939301 -0.10079,1.22245 -0.20257,2.44386 -0.30536,3.66429 0.91709,0.86619 1.83315,1.73136 2.74822,2.59554 -0.20258,0.8153 -0.40614,1.62957 -0.61072,2.44286 -2.84906,1.57871 -5.699,3.15636 -8.55001,4.73304 1.32425,2.4948 2.64744,4.98851 3.96965,7.48126 4.37788,-0.0499 8.75458,-0.10079 13.13038,-0.15268 0.91709,0.91709 1.83314,1.83314 2.74821,2.74822 1.52782,-1.11867 3.05458,-2.23829 4.58037,-3.35894 0.50994,-3.00174 1.01886,-6.00436 1.52679,-9.00804 1.6805,0.15368 3.35993,0.30635 5.0384,0.45803 0.91709,-0.66062 1.83314,-1.32221 2.74821,-1.98482 3.25822,2.69838 6.5153,5.39565 9.77145,8.09197 2.54569,-0.71151 5.09029,-1.424 7.63393,-2.1375 2.49481,0.25547 4.98851,0.50993 7.48126,0.7634 0.81531,-1.32225 1.62958,-2.64544 2.44286,-3.96965 2.18944,0.66262 4.3778,1.32421 6.56519,1.98482 -0.91509,-3.40889 -1.83114,-6.81865 -2.74822,-10.22948 1.52782,-3.15442 3.05458,-6.30972 4.58037,-9.466081 1.6805,0.764409 3.35993,1.527787 5.0384,2.290181 1.27335,-2.289227 2.54564,-4.579363 3.81697,-6.870545 -1.52582,-1.474924 -3.05258,-2.950789 -4.58037,-4.427684 1.6805,-1.729394 3.35994,-3.459719 5.0384,-5.191079 -0.50794,-3.714258 -1.01686,-7.429367 -1.52679,-11.145551 1.57872,-0.965984 3.15637,-1.932931 4.73305,-2.900896 1.98586,-1.576713 3.97065,-3.154362 5.95447,-4.733042 3.15642,-1.271349 6.31172,-2.543647 9.46608,-3.81697 2.69838,0.764409 5.39565,1.527788 8.09198,2.290182 1.83318,-1.067773 3.66529,-2.136503 5.49643,-3.206255 2.29123,0.25547 4.58137,0.50993 6.87055,0.763394 -0.20258,-2.391015 -0.40614,-4.782935 -0.61072,-7.175902 1.32425,-0.965985 2.64744,-1.932931 3.96965,-2.900897 -0.55883,-2.18744 -1.11864,-4.375792 -1.67946,-6.565187 3.00374,-0.202576 6.00636,-0.406144 9.00804,-0.610716 0.45905,-3.358 0.91708,-6.716866 1.37411,-10.076799 3.46179,-0.304364 6.92244,-0.609715 10.38216,-0.916073 0.20458,-2.441909 0.40814,-4.88472 0.61072,-7.328581 3.00374,0.102788 6.00636,0.204572 9.00804,0.305358 0.20458,1.476924 0.40815,2.952789 0.61072,4.427684 -0.96599,0.408152 -1.93293,0.815287 -2.9009,1.22143 0.10279,1.273349 0.20457,2.545647 0.30536,3.81697 1.83318,1.324242 3.66529,2.647432 5.49644,3.969648 2.4439,0.357258 4.88672,0.713501 7.32858,1.068752 0.25547,1.476924 0.50993,2.952789 0.76339,4.427684 1.42603,-0.304364 2.851,-0.609715 4.27501,-0.916073 0.25547,1.833182 0.50993,3.665291 0.76339,5.496436 -1.06777,0.662622 -2.1365,1.324217 -3.20625,1.984825 1.27334,3.461788 2.54564,6.922438 3.81697,10.382156 1.93496,3.919834 3.86886,7.838511 5.80179,11.756266 -0.30437,2.44391 -0.60972,4.886721 -0.91607,7.328582 1.93497,2.393015 3.86886,4.784935 5.80179,7.175902 -0.0499,2.240334 -0.10079,4.479578 -0.15268,6.717866 2.80017,0.76441 5.59922,1.527788 8.39733,2.290182 1.78229,1.782288 3.56351,3.563505 5.34376,5.343757 1.88408,-2.085651 3.76708,-4.17222 5.64912,-6.25983 -0.0499,1.93497 -0.10079,3.868863 -0.15268,5.801794 1.6805,1.120662 3.35993,2.240292 5.0384,3.358932 -1.52582,1.78229 -3.05258,3.56351 -4.58037,5.34376 -0.20257,2.64748 -0.40614,5.29386 -0.61071,7.93929 4.07251,0.71352 8.14387,1.42601 12.2143,2.13751 2.80017,0.96798 5.59922,1.93493 8.39733,2.90089 1.37514,1.52782 2.74922,3.05458 4.12233,4.58037 0.91709,10e-4 1.83315,10e-4 2.74822,0 2.39301,-3.76515 4.78493,-7.53116 7.1759,-11.29823 2.64749,0.10279 5.29386,0.20457 7.9393,0.30536 0.76441,1.42603 1.52778,2.851 2.29018,4.275 0.45904,3.91984 0.91707,7.83851 1.37411,11.75627 0.96798,2.74927 1.93493,5.49743 2.90089,8.24465 -0.86419,1.57871 -1.72936,3.15636 -2.59553,4.73304 0.7644,1.6805 1.52778,3.35994 2.29018,5.0384 0.25547,3.10553 0.50993,6.20994 0.76339,9.31341 -1.37314,1.93497 -2.74722,3.86886 -4.12233,5.80179 -0.15168,1.17156 -0.30435,2.34208 -0.45803,3.51161 2.18944,0.10279 4.37779,0.20458 6.56518,0.30536 -0.10078,1.06977 -0.20257,2.1385 -0.30535,3.20626 1.22245,0.50994 2.44386,1.01885 3.66429,1.52678 -0.25347,1.42603 -0.50793,2.85101 -0.7634,4.27501 -1.78028,-0.15168 -3.5615,-0.30436 -5.34375,-0.45804 -2.13655,1.98587 -4.27401,3.97065 -6.41251,5.95448 0.61173,2.24033 1.22243,4.47957 1.83214,6.71786 -2.13654,1.62961 -4.274,3.25815 -6.41251,4.88572 0.35726,1.93497 0.71351,3.86887 1.06876,5.8018 -1.27135,1.01888 -2.54365,2.03671 -3.81697,3.05357 3.20732,2.80017 6.41351,5.59922 9.61876,8.39733 1.32424,-1.42403 2.64743,-2.849 3.96965,-4.275 3.00374,0.8153 6.00636,1.62957 9.00805,2.44286 0.61172,1.42603 1.22243,2.851 1.83214,4.27501 3.15643,-0.9151 6.31172,-1.83115 9.46609,-2.74822 2.74927,-2.18744 5.49743,-4.37579 8.24465,-6.56519 0.001,-2.89996 0.001,-5.80079 0,-8.70269 2.95285,-0.76241 5.90458,-1.52579 8.85537,-2.29018 1.12067,0.96798 2.24029,1.93493 3.35893,2.90089 3.81805,-0.20257 7.63494,-0.40614 11.45091,-0.61071 2.64749,1.73139 5.29386,3.46172 7.9393,5.19108 0.40815,2.13854 0.81528,4.276 1.22143,6.41251 2.85106,1.27335 5.701,2.54564 8.55001,3.81697 2.44391,2.54569 4.88672,5.09029 7.32858,7.63393 1.98586,-0.0499 3.97065,-0.10078 5.95447,-0.15267 -0.20257,-4.93572 -0.40614,-9.87223 -0.61071,-14.80985 2.08765,-2.08565 4.17422,-4.17222 6.25983,-6.25983 -1.32225,-3.81604 -2.64544,-7.63293 -3.96965,-11.4509 2.90195,-1.42403 5.80279,-2.84901 8.70267,-4.27501 -0.2026,-3.45979 -0.4061,-6.92044 -0.6107,-10.38216 2.393,-4.93571 4.7849,-9.87222 7.1759,-14.80984 0.968,0.96799 1.9349,1.93493 2.9009,2.9009 0.8662,1.6805 1.7314,3.35993 2.5955,5.0384 1.0698,-2.03476 2.1385,-4.07044 3.2063,-6.10715 -0.3553,-2.23834 -0.7115,-4.47758 -1.0688,-6.71787 2.1895,-0.10079 4.3778,-0.20257 6.5652,-0.30536 2.2404,-3.15442 4.4796,-6.30972 6.7179,-9.46608 4.5306,0.30636 9.0599,0.61171 13.5884,0.91607 1.5278,-1.32224 3.0546,-2.64543 4.5804,-3.96965 2.5966,2.03676 5.1921,4.07244 7.7866,6.10716 1.935,-0.10079 3.8689,-0.20258 5.8018,-0.30536 0.7135,-3.66337 1.426,-7.32758 2.1375,-10.99287 -1.3223,-3.71426 -2.6454,-7.42937 -3.9697,-11.14556 0.4591,-1.27134 0.9171,-2.54364 1.3741,-3.81696 2.6984,-0.30437 5.3957,-0.60972 8.092,-0.91608 0.8662,1.22246 1.7314,2.44386 2.5956,3.66429 1.426,-2.23833 2.851,-4.47757 4.275,-6.71786 2.0367,2.90195 4.0724,5.80279 6.1071,8.70269 1.7823,-0.50794 3.5635,-1.01686 5.3438,-1.52679 -0.1008,-1.6785 -0.2026,-3.35793 -0.3054,-5.0384 1.935,0.66262 3.8689,1.32422 5.8018,1.98482 -0.6097,-2.64548 -1.2204,-5.29186 -1.8321,-7.93929 5.1413,0.71351 10.2813,1.426 15.4205,2.1375 0.6626,1.42603 1.3242,2.851 1.9848,4.27501 1.6297,-0.25347 3.2582,-0.50793 4.8858,-0.7634 0.3063,1.37514 0.6117,2.74922 0.916,4.12233 6.261,3.20732 12.5207,6.41351 18.7795,9.61876 1.5278,-0.25347 3.0546,-0.50793 4.5804,-0.76339 2.8002,-5.44465 5.5992,-10.89009 8.3973,-16.33663 1.1207,0.30636 2.2403,0.61171 3.359,0.91607 1.0188,1.47693 2.0367,2.95279 3.0535,4.42769 1.8332,0.8153 3.6653,1.62957 5.4965,2.44286 3.9198,-3.25622 7.8385,-6.5133 11.7562,-9.77144 4.5306,0.40815 9.06,0.81528 13.5884,1.22143 0.968,1.78228 1.935,3.5635 2.9009,5.34375 0.4591,1.52782 0.9171,3.05458 1.3742,4.58037 -0.6098,1.47692 -1.2205,2.95279 -1.8322,4.42768 1.7314,2.03676 3.4617,4.07243 5.1911,6.10715 1.935,-1.06777 3.8689,-2.1365 5.8018,-3.20625 -0.1008,2.18944 -0.2026,4.37779 -0.3054,6.56518 2.1386,1.27335 4.276,2.54565 6.4125,3.81697 0.4591,1.47693 0.9171,2.95279 1.3741,4.42769 2.5966,1.52782 5.1921,3.05457 7.7867,4.58036 2.0876,-2.4928 4.1742,-4.9865 6.2598,-7.48126 1.2733,1.17156 2.5456,2.34208 3.817,3.51161 1.0188,1.93497 2.0367,3.86887 3.0535,5.8018 -0.3043,1.93497 -0.6097,3.86886 -0.916,5.80179 2.1894,-1.42403 4.3778,-2.849 6.5651,-4.275 0.4591,0.7644 0.9171,1.52778 1.3742,2.29018 1.3751,3.86894 2.7492,7.73672 4.1223,11.60358 1.4769,-0.20257 2.9528,-0.40614 4.4277,-0.61071 1.3751,-1.47493 2.7492,-2.95079 4.1223,-4.42769 2.902,-0.30436 5.8028,-0.60971 8.7027,-0.91607 0.1537,-3.20532 0.3063,-6.41151 0.458,-9.61876 1.1716,-0.66062 2.3421,-1.32222 3.5116,-1.98483 1.7823,0.25547 3.5635,0.50993 5.3438,0.7634 -0.3044,-2.39102 -0.6097,-4.78294 -0.9161,-7.1759 2.5457,-2.28923 5.0903,-4.57937 7.634,-6.87055 2.2403,-0.10079 4.4795,-0.20257 6.7178,-0.30536 1.8841,1.12067 3.7671,2.24029 5.6491,3.35894 2.4948,-1.52582 4.9885,-3.05258 7.4813,-4.58037 0.1028,-2.44191 0.2046,-4.88472 0.3054,-7.32858 -2.5437,-0.40615 -5.0883,-0.81329 -7.634,-1.22143 -2.8999,-2.69638 -5.8008,-5.39365 -8.7027,-8.09197 0.1028,-2.03476 0.2046,-4.07044 0.3054,-6.10715 3.9707,-1.27135 7.9403,-2.54365 11.9089,-3.81697 2.1386,0.25547 4.276,0.50992 6.4125,0.76339 1.3752,-1.93297 2.7493,-3.86686 4.1224,-5.80179 1.2224,0.86619 2.4438,1.73136 3.6643,2.59554 4.6832,4.47966 9.3653,8.95815 14.0464,13.43573 3.0546,-0.30437 6.1082,-0.60972 9.1607,-0.91607 0.6627,-2.5946 1.3242,-5.19008 1.9849,-7.78662 3.36,-3.4089 6.7188,-6.81865 10.0768,-10.229481 0.4081,-2.747273 0.8152,-5.495436 1.2214,-8.244654 1.3242,0.153682 2.6474,0.306358 3.9696,0.458037 1.4261,1.527818 2.851,3.054575 4.275,4.580363 1.8841,1.42603 3.7671,2.851004 5.6492,4.275006 3.4108,-1.016879 6.8206,-2.034717 10.2294,-3.053576 3.2582,2.342122 6.5153,4.683145 9.7715,7.023225 4.0216,2.39301 8.0421,4.78493 12.0616,7.1759 4.2761,0.71352 8.551,1.426 12.825,2.1375 2.0877,-2.59459 4.1742,-5.19007 6.2598,-7.78661 1.7823,1.88407 3.5635,3.76707 5.3438,5.64911 1.2733,-0.30436 2.5456,-0.60971 3.817,-0.91607 0.8662,-2.4928 1.7313,-4.98651 2.5955,-7.48126 3.2582,0.15368 6.5153,0.30636 9.7715,0.45804 0.3572,-1.16957 0.7135,-2.34008 1.0687,-3.511617 2.6475,1.476927 5.2939,2.952787 7.9393,4.427687 3.5127,-1.93297 7.0242,-3.86686 10.5348,-5.801796 1.0698,1.324243 2.1385,2.647436 3.2063,3.969646 2.6475,3.4109 5.2939,6.82065 7.9393,10.22948 2.393,0.50994 4.7849,1.01886 7.1759,1.52679 1.0698,-1.37314 2.1385,-2.74722 3.2062,-4.12233 2.3422,1.32424 4.6832,2.64743 7.0233,3.96965 -0.1008,1.98586 -0.2026,3.97065 -0.3054,5.95447 3.2582,1.17156 6.5153,2.34208 9.7715,3.51161 0.8661,1.06978 1.7313,2.13851 2.5955,3.20626 -0.966,2.4948 -1.9329,4.9885 -2.9009,7.48126 0.6626,0.71351 1.3242,1.426 1.9848,2.1375 1.8841,1.62961 3.7671,3.25815 5.6491,4.88572 1.0698,-0.30436 2.1385,-0.60971 3.2063,-0.91607 10e-4,-3.96873 10e-4,-7.9383 0,-11.90895 3.2073,-1.88207 6.4135,-3.76507 9.6187,-5.64911 2.5457,0.76441 5.0903,1.52779 7.634,2.29018 0.1537,2.90196 0.3063,5.8028 0.458,8.70269 2.2913,-0.96598 4.5814,-1.93293 6.8706,-2.90089 2.5966,3.41089 5.192,6.82065 7.7866,10.22947 2.2403,-0.30436 4.4796,-0.60971 6.7179,-0.91607 1.4769,1.57871 2.9527,3.15636 4.4276,4.73304 1.2225,-1.6785 2.4439,-3.35793 3.6643,-5.0384 0.8662,0.15368 1.7314,0.30636 2.5956,0.45804 1.0697,5.70112 2.1385,11.40101 3.2062,17.10002 2.0368,1.57871 4.0725,3.15636 6.1072,4.73304 2.9528,3.71626 5.9046,7.43137 8.8553,11.14556 0.51,8.3476 1.0189,16.69387 1.5268,25.03931 0.4082,0.61173 0.8153,1.22244 1.2215,1.83215 10.4342,2.5457 20.8671,5.09029 31.2991,7.63394 4.1234,4.1743 8.2457,8.34744 12.367,12.51966 1.426,0.001 2.851,0.001 4.275,0 1.9859,-2.18744 3.9706,-4.37579 5.9545,-6.56519 1.6296,1.88408 3.2581,3.76708 4.8857,5.64912 0.052,1.88407 0.1028,3.76707 0.1527,5.64911 -1.5767,1.6805 -3.1544,3.35993 -4.7331,5.0384 0.6118,0.56083 1.2225,1.12065 1.8322,1.67947 8.6529,2.18944 17.3046,4.37779 25.9554,6.56518 1.884,-1.98386 3.767,-3.96864 5.6491,-5.95447 3.5127,0.20458 7.0242,0.40815 10.5348,0.61072 0.4591,1.40058 0.9171,2.80011 1.3741,4.19866 4.4288,5.85381 8.8564,11.70638 13.2831,17.55806 2.9424,-0.96299 5.8837,-1.92694 8.824,-2.89192 1.5845,0.43285 3.1678,0.86469 4.7503,1.29553 2.1602,2.73604 4.3194,5.47098 6.4776,8.20497 1.2245,-0.21492 2.4481,-0.43084 3.6706,-0.64776 2.4482,-1.79837 4.8952,-3.59767 7.3413,-5.39801 2.0883,0.073 4.1755,0.14495 6.2617,0.21592 1.9443,1.1526 3.8876,2.30415 5.8298,3.45473 -0.2869,0.8647 -0.5747,1.72836 -0.8636,2.59104 -1.4385,1.80037 -2.878,3.59968 -4.3184,5.39801 0.2169,5.39912 0.4328,10.79702 0.6477,16.19403 -1.2226,2.3042 -2.4461,4.6073 -3.6706,6.90945 0.4328,1.4405 0.8647,2.87994 1.2955,4.31841 -0.143,1.08063 -0.2869,2.16021 -0.4318,3.23881 -1.6545,-0.5748 -3.3098,-1.15058 -4.9662,-1.72736 -0.8627,1.87234 -1.7264,3.74362 -2.5911,5.61393 -1.2945,-1.58245 -2.59,-3.16584 -3.8865,-4.75025 -1.0787,0.21692 -2.1582,0.43284 -3.2388,0.64776 -1.3666,2.30419 -2.734,4.6073 -4.1025,6.90945 -0.071,1.80037 -0.143,3.59967 -0.2159,5.39801 -2.878,3.1679 -5.7569,6.33467 -8.6369,9.5005 -1.7983,3.59974 -3.5976,7.19834 -5.398,10.79602 0.2889,2.59209 0.5768,5.18309 0.8637,7.77313 -1.1506,0.5768 -2.3021,1.15258 -3.4547,1.72737 0.5048,2.66407 1.0086,5.32703 1.5114,7.98905 -1.7983,1.87235 -3.5976,3.74362 -5.398,5.61393 -2.2302,-0.14295 -4.4613,-0.28689 -6.6935,-0.43184 -0.4309,5.61504 -0.8627,11.22886 -1.2955,16.84179 -0.7908,0.64878 -1.5824,1.29652 -2.3752,1.94328 0.217,1.58445 0.4329,3.16784 0.6478,4.75025 1.3685,1.65643 2.736,3.31178 4.1025,4.96617 -0.143,2.23222 -0.2869,4.46336 -0.4318,6.69353 -1.2946,1.29655 -2.5901,2.59205 -3.8866,3.88657 -0.071,1.36853 -0.143,2.73599 -0.2159,4.10249 -1.2946,1.58445 -2.5901,3.16783 -3.8866,4.75025 -1.6544,-0.2869 -3.3098,-0.57479 -4.9662,-0.86368 -0.2869,3.02394 -0.5748,6.04677 -0.8637,9.06865 2.0163,1.4405 4.0316,2.87994 6.0458,4.31841 0.3609,2.37617 0.7208,4.75125 1.0796,7.12537 -1.1506,1.7284 -2.3021,3.45573 -3.4547,5.18209 -1.3665,4.82332 -2.734,9.64545 -4.1025,14.46667 -1.7984,-0.071 -3.5977,-0.14295 -5.398,-0.21592 -2.2302,0.64877 -4.4614,1.29652 -6.6935,1.94328 -0.8627,1.7284 -1.7264,3.45573 -2.5911,5.18209 -2.3742,1.80038 -4.7492,3.59968 -7.1254,5.39801 -2.0143,1.4405 -4.0295,2.87994 -6.0457,4.31841 -1.1506,3.38382 -2.3022,6.76651 -3.4548,10.14826 -1.2945,0.72075 -2.59,1.44047 -3.8865,2.1592 -1.5825,-0.21492 -3.1659,-0.43084 -4.7503,-0.64776 -2.2302,2.88 -4.4613,5.75888 -6.6935,8.63682 -2.2302,5.18319 -4.4614,10.36518 -6.6935,15.54627 10e-4,7.99021 10e-4,15.97911 0,23.96716 -1.1506,5.83097 -2.3022,11.6607 -3.4548,17.48955 -0.7907,8.49404 -1.5824,16.98674 -2.3751,25.47861 1.0806,0.5768 2.1602,1.15258 3.2388,1.72736 1.2246,-0.071 2.4481,-0.14294 3.6707,-0.21592 -0.5029,1.65643 -1.0067,3.31178 -1.5115,4.96617 -1.2945,0.36088 -2.59,0.72074 -3.8865,1.0796 -0.2869,1.7284 -0.5748,3.45573 -0.8637,5.18209 -1.7984,1.08063 -3.5977,2.16021 -5.398,3.23881 -3.022,0.21693 -6.0448,0.43284 -9.0687,0.64776 -1.4385,-1.7264 -2.8779,-3.45372 -4.3184,-5.18209 -3.8856,0.2889 -7.7721,0.57679 -11.6597,0.86368 -1.0786,-1.43849 -2.1582,-2.87793 -3.2388,-4.3184 -2.0863,1.87234 -4.1735,3.74362 -6.2617,5.61393 -1.5824,-0.14295 -3.1658,-0.2869 -4.7502,-0.43184 0.2889,1.15259 0.5767,2.30415 0.8636,3.45472 -3.3818,-0.43085 -6.7645,-0.86268 -10.1482,-1.29552 -1.7984,0.50482 -3.5977,1.00863 -5.398,1.51144 -0.4309,2.16025 -0.8627,4.31941 -1.2956,6.47761 -2.9499,-1.65442 -5.9008,-3.30978 -8.8527,-4.96617 -1.6544,1.94433 -3.3098,3.88757 -4.9662,5.82986 -2.3741,0.073 -4.7492,0.14494 -7.1253,0.21592 -0.5748,-1.58245 -1.1506,-3.16584 -1.7274,-4.75025 -1.8703,0.21692 -3.7416,0.43284 -5.6139,0.64776 0.4328,4.53542 0.8647,9.06966 1.2955,13.60298 -1.2946,1.00865 -2.5901,2.01626 -3.8866,3.02289 -2.878,-2.0143 -5.7569,-4.02951 -8.6368,-6.04577 -3.0219,1.1526 -6.0448,2.30415 -9.0686,3.45472 -2.0143,-2.59009 -4.0296,-5.18109 -6.0458,-7.77313 -2.7341,0.36087 -5.469,0.72073 -8.205,1.0796 -1.4385,-2.59009 -2.8779,-5.18109 -4.3184,-7.77313 0.1449,-2.3022 0.2889,-4.6053 0.4318,-6.90946 -1.4385,-1.29454 -2.8779,-2.59004 -4.3184,-3.88656 -2.4461,10e-4 -4.8932,10e-4 -7.3413,0 -1.2945,-6.04489 -2.59,-12.09054 -3.8865,-18.13732 -2.806,-4.31749 -5.613,-8.63581 -8.4209,-12.95522 -0.2149,-4.67737 -0.4309,-9.35555 -0.6478,-14.03483 -2.0143,-3.16589 -4.0295,-6.33266 -6.0458,-9.50049 -3.0939,1.22457 -6.1887,2.44809 -9.2845,3.67064 -3.3819,-1.36652 -6.7645,-2.73399 -10.1483,-4.10248 -1.7264,-2.66208 -3.4537,-5.32504 -5.1821,-7.98906 0.2889,-3.16589 0.5768,-6.33266 0.8637,-9.5005 -2.2302,-0.50282 -4.4614,-1.00662 -6.6935,-1.51144 -4.7494,-3.95762 -9.4995,-7.91608 -14.2508,-11.87562 -2.806,0.36087 -5.6129,0.72073 -8.4209,1.0796 10e-4,3.81567 10e-4,7.63019 0,11.44378 -1.2945,10e-4 -2.59,10e-4 -3.8865,0 -1.5825,-1.22257 -3.1659,-2.4461 -4.7503,-3.67064 -1.8703,1.80037 -3.7416,3.59967 -5.6139,5.39801 -1.8704,10e-4 -3.7416,10e-4 -5.614,0 -1.2945,-1.07863 -2.59,-2.15821 -3.8865,-3.23881 -1.2226,1.1526 -2.4461,2.30415 -3.6707,3.45473 10e-4,2.30419 10e-4,4.6073 0,6.90945 -1.4385,2.0163 -2.8779,4.03151 -4.3184,6.04577 -3.4538,0.073 -6.9084,0.14495 -10.3642,0.21592 -3.3098,-2.23022 -6.6205,-4.46135 -9.9323,-6.69353 -1.9783,0.46883 -3.9575,0.93665 -5.9378,1.40348 -2.5181,2.16025 -5.0371,4.31941 -7.5572,6.47761 -2.77,-0.53881 -5.541,-1.0786 -8.3129,-1.6194 -3.6698,4.96727 -7.3403,9.93334 -11.012,14.89851 -2.1222,-0.39486 -4.2454,-0.79071 -6.3696,-1.18756 -1.5465,-1.79838 -3.0939,-3.59768 -4.6423,-5.39801 0.5408,-2.19424 1.0806,-4.38939 1.6194,-6.58558 -7.2325,-1.65442 -14.4657,-3.30978 -21.7,-4.96617 -5.1092,1.76439 -10.2193,3.5277 -15.3304,5.29005 -1.4385,-2.44614 -2.8779,-4.89319 -4.3184,-7.34129 -2.734,-0.93467 -5.469,-1.87031 -8.205,-2.80697 -0.7547,-2.80602 -1.5104,-5.61293 -2.2671,-8.42089 -3.9576,1.7284 -7.9161,3.45573 -11.8756,5.18209 -3.4898,-4.20953 -6.9805,-8.4199 -10.4722,-12.63134 -11.9108,1.44049 -23.8222,2.87993 -35.7348,4.3184 -6.8006,1.58445 -13.602,3.16784 -20.4045,4.75025 -5.2172,2.95197 -10.4351,5.90283 -15.6542,8.85274 -2.6261,-0.10696 -5.2531,-0.21492 -7.8811,-0.32388 -2.0863,-1.47449 -4.1735,-2.94991 -6.2617,-4.42637 -2.1942,3.09592 -4.3894,6.19072 -6.5856,9.28458 -1.6544,-1.25856 -3.3098,-2.51807 -4.9661,-3.77861 -0.6108,2.08827 -1.2226,4.17546 -1.8354,6.26169 1.1166,1.58445 2.2322,3.16783 3.3468,4.75025 -0.5028,2.77203 -1.0066,5.54296 -1.5114,8.31294 -3.6338,3.49178 -7.2684,6.98242 -10.904,10.47213 -0.2869,2.26821 -0.5748,4.53533 -0.8637,6.8015 -2.95,1.08062 -5.9008,2.1602 -8.8527,3.2388 0.073,2.52012 0.1449,5.03915 0.2159,7.55722 -1.7264,0.073 -3.4537,0.14494 -5.1821,0.21592 -0.8627,2.23222 -1.7264,4.46335 -2.5911,6.69353 1.0087,1.51247 2.0163,3.02389 3.0229,4.53433 -0.3588,2.3042 -0.7187,4.6073 -1.0796,6.90945 -1.3665,3.67172 -2.734,7.34229 -4.1025,11.01194 -2.4461,2.37617 -4.8932,4.75125 -7.3413,7.12537 -0.3588,3.31185 -0.7187,6.62256 -1.0796,9.93234 -2.1582,1.36853 -4.3174,2.73599 -6.4776,4.10249 -0.4308,1.22457 -0.8626,2.4481 -1.2955,3.67065 -1.7264,1.29655 -3.4537,2.59204 -5.1821,3.88656 -0.4308,3.7437 -0.8627,7.48624 -1.2955,11.22786 -3.1659,1.65643 -6.3327,3.31178 -9.5005,4.96617 -5.3251,-3.16589 -10.6511,-6.33266 -15.9781,-9.50049 -0.7907,1.58444 -1.5824,3.16783 -2.3751,4.75025 -0.7188,1.51247 -1.4385,3.02388 -2.1592,4.53432 -2.0143,-0.071 -4.0296,-0.14294 -6.0458,-0.21592 -0.2149,2.16025 -0.4308,4.31941 -0.6478,6.47762 -6.2608,-2.0143 -12.5224,-4.02952 -18.785,-6.04578 0.1449,2.08828 0.2888,4.17547 0.4318,6.2617 -0.5028,2.44814 -1.0066,4.89519 -1.5114,7.34129 -1.9424,2.08827 -3.8856,4.17546 -5.8299,6.26169 -4.31749,2.95197 -8.63581,5.90282 -12.95522,8.85274 1.1526,2.01629 2.30415,4.03151 3.45473,6.04577 -2.15825,-0.14295 -4.31741,-0.2869 -6.47762,-0.43184 -0.50282,1.94432 -1.00662,3.88756 -1.51144,5.82985 -1.65442,-1.7264 -3.30978,-3.45373 -4.96617,-5.18209 -2.59009,1.00865 -5.18109,2.01626 -7.77313,3.02288 -4.10157,1.4405 -8.20398,2.87994 -12.30747,4.31841 -0.2869,2.16025 -0.57478,4.31941 -0.86368,6.47761 -1.65442,-0.21492 -3.30978,-0.43084 -4.96617,-0.64776 -1.58244,3.23987 -3.16583,6.47861 -4.75024,9.71642 -3.1659,0.50483 -6.33267,1.00863 -9.5005,1.51144 -0.5748,-1.87034 -1.15058,-3.74162 -1.72737,-5.61393 1.58445,-0.79072 3.16784,-1.58241 4.75025,-2.37512 -0.35887,-2.23022 -0.71873,-4.46136 -1.0796,-6.69353 -4.31749,-3.02195 -8.63581,-6.04477 -12.95522,-9.06866 -1.36653,2.16025 -2.73399,4.31941 -4.10249,6.47761 -3.59775,0.073 -7.19635,0.14495 -10.79602,0.21592 -1.79837,2.23222 -3.59767,4.46336 -5.39801,6.69353 -1.7264,-2.66207 -3.45373,-5.32503 -5.18209,-7.98905 2.73605,-2.878 5.47098,-5.75688 8.20498,-8.63682 -2.51813,-3.09392 -5.03715,-6.18871 -7.55722,-9.28457 -3.38182,-1.58245 -6.7645,-3.16584 -10.14826,-4.75025 -1.65442,1.29655 -3.30978,2.59204 -4.96617,3.88657 -0.64677,1.80037 -1.29452,3.59967 -1.94328,5.39801 -3.38182,-1.87035 -6.76451,-3.74163 -10.14826,-5.61394 -1.36652,-2.08627 -2.73399,-4.17346 -4.10249,-6.26169 1.00865,-1.51047 2.01626,-3.02188 3.02289,-4.53433 -1.94232,-1.43849 -3.88557,-2.87793 -5.82985,-4.3184 -1.58245,1.22457 -3.16583,2.44809 -4.75025,3.67064 -1.94232,-3.02194 -3.88557,-6.04477 -5.82985,-9.06865 -4.96527,6.11886 -9.93134,12.23649 -14.89851,18.35323 -5.10922,1.7284 -10.21923,3.45573 -15.33035,5.18209 0.2889,2.95197 0.57679,5.90282 0.86368,8.85274 -2.59009,0.93667 -5.18108,1.87231 -7.77313,2.80696 1.65642,2.73605 3.31178,5.47099 4.96617,8.20498 -1.79837,2.66407 -3.59767,5.32703 -5.39801,7.98905 -0.21492,5.32714 -0.43084,10.65307 -0.64776,15.97811 -2.878,2.5921 -5.75688,5.18309 -8.63682,7.77314 -1.65442,-2.66208 -3.30978,-5.32504 -4.96617,-7.98906 -1.65442,0.2889 -3.30978,0.57679 -4.96617,0.86368 -1.65442,2.0163 -3.30978,4.03152 -4.96616,6.04577 -10.65129,-0.50282 -21.30315,-1.00663 -31.95622,-1.51144 -2.44615,2.52012 -4.8932,5.03914 -7.3413,7.55721 -2.59009,-0.14295 -5.18109,-0.28689 -7.77313,-0.43184 -0.93468,3.31185 -1.87031,6.62256 -2.80697,9.93234 -3.09392,-2.30219 -6.18871,-4.6053 -9.28457,-6.90945 -5.757,0.36087 -11.51476,0.72073 -17.27364,1.0796 -1.94232,-2.51812 -3.88556,-5.03714 -5.82985,-7.55721 -1.43849,2.44814 -2.87794,4.89519 -4.3184,7.34129 -2.3022,0.14495 -4.60531,0.28889 -6.90946,0.43184 -1.29455,-1.7264 -2.59004,-3.45372 -3.88656,-5.18209 -1.94233,2.44815 -3.88557,4.8952 -5.82986,7.3413 -4.53341,-3.02195 -9.06765,-6.04478 -13.60298,-9.06866 -1.51047,1.51247 -3.02189,3.02388 -4.53433,4.53433 -1.29455,2.95197 -2.59004,5.90282 -3.88657,8.85273 -3.45379,-1.58244 -6.90845,-3.16583 -10.36417,-4.75025 -3.88565,1.51248 -7.77214,3.02389 -11.65971,4.53433 -2.59009,-1.58244 -5.18109,-3.16583 -7.77313,-4.75025 -1.65442,2.5921 -3.30978,5.18309 -4.96617,7.77314 -2.94997,-2.08627 -5.90082,-4.17346 -8.85274,-6.26169 -2.80602,5.32714 -5.61293,10.65307 -8.42089,15.97811 1.22457,2.37617 2.4481,4.75125 3.67064,7.12537 -1.87034,2.73605 -3.74162,5.47098 -5.61393,8.20498 -4.02959,0.36087 -8.06002,0.72073 -12.09154,1.0796 -0.64677,2.16024 -1.29452,4.31941 -1.94328,6.47761 2.16025,1.7284 4.31941,3.45573 6.47761,5.18209 -0.071,3.59974 -0.14295,7.19835 -0.21592,10.79602 -1.7264,1.58445 -3.45373,3.16783 -5.18209,4.75025 0.5768,4.03159 1.15258,8.06203 1.72736,12.09154 -0.21492,3.23987 -0.43084,6.47861 -0.64776,9.71642 2.5921,0.8647 5.18309,1.72836 7.77314,2.59104 0.79272,1.4405 1.58441,2.87994 2.37512,4.31841 2.95197,0.073 5.90283,0.14495 8.85274,0.21592 10e-4,2.73605 10e-4,5.47098 0,8.20498 3.02394,1.00864 6.04677,2.01625 9.06865,3.02288 -0.86269,2.3042 -1.72636,4.6073 -2.59104,6.90945 -4.10157,-1.00664 -8.20398,-2.01425 -12.30746,-3.02288 -4.82132,-0.14295 -9.64345,-0.2869 -14.46667,-0.43184 -1.51047,0.79272 -3.02189,1.58441 -4.53433,2.37512 -1.00665,1.87235 -2.01426,3.74362 -3.02288,5.61393 10e-4,2.37617 10e-4,4.75125 0,7.12538 -3.09392,1.51247 -6.18872,3.02388 -9.28458,4.53432 -3.02195,1.87235 -6.04477,3.74362 -9.06866,5.61393 -5.32514,1.00865 -10.65107,2.01626 -15.97811,3.02289 -4.67737,-2.5901 -9.35555,-5.18109 -14.03482,-7.77313 -6.54872,3.45579 -13.09817,6.91045 -19.64876,10.36417 -3.23787,-2.80602 -6.47661,-5.61293 -9.71642,-8.42089 -2.73404,0.14495 -5.46898,0.28889 -8.20497,0.43184 -2.5901,2.16025 -5.18109,4.31941 -7.77314,6.47761 -9.71561,3.09592 -19.43183,6.19072 -29.14925,9.28458 -4.17354,-0.14295 -8.34792,-0.28689 -12.52338,-0.43184 -2.23023,-1.94232 -4.46136,-3.88557 -6.69354,-5.82985 -3.74169,-0.14295 -7.48424,-0.2869 -11.22786,-0.43184 -0.93467,1.44049 -1.87031,2.87994 -2.80696,4.3184 -2.73405,-0.14295 -5.46898,-0.28689 -8.20498,-0.43184 -1.72639,-1.94232 -3.45372,-3.88556 -5.18209,-5.82985 -7.62834,-1.1506 -15.25737,-2.30215 -22.88756,-3.45472 -4.82132,0.43285 -9.64344,0.86468 -14.46667,1.29552 -1.51047,1.4405 -3.02188,2.87994 -4.53432,4.31841 -2.15825,-0.2869 -4.31741,-0.57479 -6.47762,-0.86368 -0.86269,-1.7264 -1.72636,-3.45373 -2.59104,-5.18209 -2.08627,0.14495 -4.17346,0.28889 -6.26169,0.43184 -1.65442,2.95197 -3.30978,5.90282 -4.96617,8.85273 -2.51812,-0.79072 -5.03714,-1.58241 -7.55721,-2.37512 -2.66208,0.8647 -5.32504,1.72836 -7.98906,2.59104 -3.66972,-1.1506 -7.34029,-2.30215 -11.01194,-3.45472 -3.1659,1.29655 -6.33266,2.59204 -9.5005,3.88656 -1.7264,-1.29454 -3.45372,-2.59004 -5.18209,-3.88656 -1.87034,1.00865 -3.74162,2.01625 -5.61393,3.02288 -5.39712,-2.23022 -10.79502,-4.46135 -16.19403,-6.69353 -3.30984,-2.44615 -6.62056,-4.8932 -9.93234,-7.34129 -0.14295,-2.66207 -0.28689,-5.32504 -0.43184,-7.98906 -3.09392,0.21693 -6.18871,0.43284 -9.28457,0.64776 -2.44615,-3.23787 -4.8932,-6.47661 -7.3413,-9.71641 -3.81367,-0.5748 -7.62818,-1.15058 -11.44378,-1.72737 -1.7264,1.58445 -3.45372,3.16783 -5.18209,4.75025 -2.23022,-1.94232 -4.46135,-3.88557 -6.69353,-5.82985 0.79272,-2.15825 1.58442,-4.31741 2.37512,-6.47761 -1.94232,-0.71875 -3.88556,-1.43847 -5.82985,-2.15921 0.93668,-2.87799 1.87231,-5.75687 2.80697,-8.63681 -3.52577,-2.51812 -7.0524,-5.03714 -10.5801,-7.55722 0.50482,-2.44614 1.00863,-4.89319 1.51144,-7.34129 -3.38182,0.14495 -6.7645,0.28889 -10.14826,0.43184 -1.22257,1.29655 -2.44609,2.59205 -3.67064,3.88657 -1.65443,-1.4385 -3.30978,-2.87794 -4.96617,-4.31841 1.08062,-2.80602 2.1602,-5.61293 3.2388,-8.42089 -3.66972,-2.80603 -7.34029,-5.61294 -11.01194,-8.4209 -1.94232,-0.43085 -3.88556,-0.86268 -5.82985,-1.29552 0.72075,-1.94233 1.44047,-3.88557 2.15921,-5.82985 -4.3175,-3.1659 -8.63582,-6.33267 -12.95523,-9.5005 -1.79837,-4.38947 -3.59767,-8.77976 -5.39801,-13.17115 -8.34809,-1.36652 -16.69684,-2.73399 -25.04676,-4.10248 -1.58245,-2.44615 -3.16584,-4.8932 -4.75025,-7.3413 -4.0296,1.58445 -8.06003,3.16784 -12.09154,4.75025 -2.3022,-0.71875 -4.60531,-1.43847 -6.90946,-2.1592 -2.59009,2.08827 -5.18109,4.17546 -7.77313,6.26169 -1.1506,-2.80602 -2.30215,-5.61293 -3.45473,-8.4209 -3.52577,-1.29454 -7.0524,-2.59004 -10.5801,-3.88656 -2.37417,2.44814 -4.74925,4.89519 -7.12537,7.34129 -1.51047,-2.878 -3.02189,-5.75688 -4.53433,-8.63682 2.08827,-1.87034 4.17546,-3.74162 6.26169,-5.61393 -2.37417,-1.51047 -4.74925,-3.02188 -7.12537,-4.53432 2.0163,-1.51048 4.03151,-3.02189 6.04577,-4.53433 -1.65442,-2.23022 -3.30978,-4.46136 -4.96617,-6.69353 2.23222,-2.23023 4.46336,-4.46136 6.69353,-6.69354 -3.16589,-6.40476 -6.33266,-12.81027 -9.50049,-19.21691 -5.90095,-1.4385 -11.802653,-2.87794 -17.705477,-4.31841 -2.518121,-2.878 -5.037142,-5.75688 -7.557214,-8.63682 0.43285,-3.74169 0.864682,-7.48424 1.295523,-11.22786 -3.885645,-5.90094 -7.772135,-11.80265 -11.659702,-17.70547 1.584448,-4.53342 3.167833,-9.06766 4.750249,-13.60298 -3.597745,0.14495 -7.196347,0.28889 -10.79602,0.43184 -2.446147,-6.6207 -4.893196,-13.24212 -7.341293,-19.86468 1.512473,-1.58245 3.023885,-3.16583 4.534328,-4.75025 -3.165896,-1.36652 -6.332665,-2.73399 -9.500498,-4.10249 -0.790724,-2.15824 -1.582416,-4.3174 -2.375124,-6.47761 -1.366523,0.72075 -2.733992,1.44047 -4.102488,2.15921 -1.798372,-1.29455 -3.597673,-2.59005 -5.39801,-3.88657 0.07297,-3.95762 0.144947,-7.91608 0.215921,-11.87562 1.224573,-0.64678 2.448098,-1.29453 3.670647,-1.94329 0.864699,-1.94232 1.728363,-3.88556 2.591044,-5.82985 -1.366523,-2.3022 -2.733991,-4.6053 -4.102487,-6.90945 2.160247,-0.8627 4.319408,-1.72636 6.477612,-2.59105 -2.158247,-4.31749 -4.317408,-8.63581 -6.477612,-12.95522 5.183193,-5.03724 10.365179,-10.07528 15.546269,-15.11443 -1.150599,-2.15824 -2.302151,-4.31741 -3.454727,-6.47761 3.095921,-0.14295 6.190718,-0.28689 9.284577,-0.43184 -0.07098,-3.09392 -0.142947,-6.18872 -0.21592,-9.28458 3.311846,-0.8627 6.622559,-1.72636 9.932338,-2.59104 0.576799,-1.58245 1.152576,-3.16583 1.727363,-4.75025 -2.014297,-3.7417 -4.029514,-7.48424 -6.045771,-11.22786 -0.430849,-4.0296 -0.862681,-8.06003 -1.295522,-12.09154 1.728398,-5.32515 3.455726,-10.65108 5.182089,-15.97811 1.656423,-0.2869 3.31178,-0.57479 4.96617,-0.86368 -0.934674,-2.37418 -1.870311,-4.74925 -2.806966,-7.12538 1.440498,-1.22257 2.879939,-2.4461 4.318408,-3.67064 -0.286899,-3.1659 -0.574787,-6.33267 -0.863681,-9.5005 3.311845,-3.4538 6.622559,-6.90846 9.932338,-10.36418 -0.358874,-4.0296 -0.718735,-8.06003 -1.079602,-12.09154 9.717612,-11.29906 19.433838,-22.59867 29.149258,-33.89951 0.5768,-1.15059 1.15257,-2.30215 1.72736,-3.45472 -0.14295,-2.94997 -0.28689,-5.90083 -0.43184,-8.85274 3.23987,-1.07862 6.47861,-2.1582 9.71642,-3.23881 5.25516,-5.90094 10.50912,-11.80264 15.76219,-17.70547 3.02394,-0.14295 6.04677,-0.28689 9.06865,-0.43184 1.08063,1.4405 2.16021,2.87994 3.23881,4.31841 4.96727,1.00865 9.93334,2.01626 14.89851,3.02289 0.43284,1.44049 0.86468,2.87993 1.29552,4.3184 4.10357,1.00865 8.20597,2.01626 12.30746,3.02289 0.36088,2.16025 0.72074,4.31941 1.0796,6.47761 1.94432,0.2889 3.88757,0.57679 5.82985,0.86368 1.08063,1.94432 2.16021,3.88757 3.23881,5.82985 3.02395,-0.071 6.04677,-0.14294 9.06866,-0.21592 3.02394,-1.65442 6.04677,-3.30978 9.06865,-4.96617 2.5921,-3.59774 5.18309,-7.19634 7.77314,-10.79602 4.10357,1.80038 8.20597,3.59968 12.30746,5.39801 2.44815,4.46345 4.8952,8.92571 7.34129,13.38707 1.36853,-0.93468 2.73599,-1.87031 4.10249,-2.80697 1.94432,-1.79837 3.88757,-3.59767 5.82985,-5.39801 3.4558,0.21693 6.91045,0.43284 10.36418,0.64776 0.93667,-2.37417 1.87231,-4.74924 2.80697,-7.12537 2.30419,0.14495 4.6073,0.28889 6.90945,0.43184 1.08062,-2.66207 2.1602,-5.32503 3.2388,-7.98905 3.88765,0.36087 7.77414,0.72073 11.65971,1.0796 1.72839,-1.51047 3.45572,-3.02189 5.18209,-4.53433 2.52012,0.14495 5.03914,0.28889 7.55721,0.43184 6.91059,-9.42771 13.81991,-18.85605 20.72836,-28.28557 4.60739,-0.35888 9.2136,-0.71874 13.8189,-1.0796 2.95851,1.08628 5.91589,2.17151 8.87234,3.25577 z" />
  </g>
  <g
     inkscape:groupmode="layer"
     id="layer4"
     inkscape:label="marker">
    <g
       id="path10500-8">
      <path
         style="color:#000000;fill:#ffffff;stroke-width:2.395;stroke-linecap:round;stroke-linejoin:bevel;-inkscape-stroke:none"
         d="M 723.07955,454.96753 674.12322,323.71843"
         id="path10526" />
    </g>
    <g
       id="g11429"
       transform="translate(-291.92182,-140.76983)">
      <g
         id="g11419">
        <path
           id="path8701"
           style="fill:none;stroke:#cf7500;stroke-width:3.79289;stroke-linejoin:bevel;stroke-dasharray:none;stroke-opacity:1"
           d="m 673.24966,301.5407 a 46.003555,46.003559 0 0 0 -46.00195,46.00391 46.003555,46.003559 0 0 0 46.00195,46.00195 46.003555,46.003559 0 0 0 46.0039,-46.00195 46.003555,46.003559 0 0 0 -46.0039,-46.00391 z m 0.0547,21.82422 a 24.010206,24.010208 0 0 1 24.00976,24.00977 24.010206,24.010208 0 0 1 -24.00976,24.00976 24.010206,24.010208 0 0 1 -24.00977,-24.00976 24.010206,24.010208 0 0 1 24.00977,-24.00977 z" />
        <g
           id="path10500"
           transform="matrix(0.86349766,0,0,0.71651872,87.222411,106.74203)">
          <path
             style="color:#000000;fill:#ffffff;stroke-width:2.395;stroke-linecap:round;stroke-linejoin:bevel;-inkscape-stroke:none"
             d="M 723.07827,454.96754 772.0346,323.71843"
             id="path10532" />
          <path
             id="path10534"
             style="color:#000000;fill:#cf7500;stroke-linecap:round;stroke-linejoin:bevel;-inkscape-stroke:none"
             d="m 629.30417,363.32277 a 1.1975,1.1975 0 0 0 -0.70313,1.54102 l 48.95508,131.25 a 1.1975,1.1975 0 0 0 0.0312,0.0332 1.1975,1.1975 0 0 0 0.3086,0.33008 1.1975,1.1975 0 0 0 0.33007,0.30859 1.1975,1.1975 0 0 0 0.0332,0.0312 1.1975,1.1975 0 0 0 0.41796,-0.0156 1.1975,1.1975 0 0 0 0.41993,0.0156 1.1975,1.1975 0 0 0 0.0586,-0.0332 1.1975,1.1975 0 0 0 0.041,-0.0234 1.1975,1.1975 0 0 0 0.57812,-0.61914 1.1975,1.1975 0 0 0 0.0254,-0.0273 l 48.95508,-131.25 a 1.1975,1.1975 0 0 0 -0.70313,-1.54102 1.1975,1.1975 0 0 0 -1.54101,0.70508 L 678.67721,492.26809 630.84518,364.02785 a 1.1975,1.1975 0 0 0 -1.54101,-0.70508 z" />
        </g>
      </g>
      <g
         id="g11413"
         transform="translate(9.3387257e-7,-0.43184101)">
        <path
           style="fill:#cf7500;fill-opacity:1;stroke:#cf7500;stroke-width:0.517129;stroke-linecap:round;stroke-linejoin:bevel;stroke-dasharray:none;stroke-opacity:1"
           d="m 637.69391,379.08495 c -1.55761,0.3091 -0.69225,1.98567 -0.21628,2.86479 11.56178,25.66334 22.94006,51.41161 34.77914,76.94858 0.27762,1.23244 2.04565,1.20466 2.24396,-0.0814 11.75789,-26.09638 23.49314,-52.20262 35.17606,-78.33226 0.47015,-1.20809 -1.26877,-1.87238 -1.90955,-0.8814 -4.76722,4.84345 -10.42748,8.94362 -16.76039,11.44927 -5.35453,2.1743 -11.09507,3.44292 -16.92262,3.359 -12.94862,0.53818 -25.79535,-5.05049 -34.77743,-14.31835 -0.48493,-0.39612 -0.91759,-1.02545 -1.61289,-1.00821 z"
           id="path10612" />
        <path
           style="fill:#cf7500;fill-opacity:1;stroke:#cf7500;stroke-width:0.517129;stroke-linecap:round;stroke-linejoin:bevel;stroke-dasharray:none;stroke-opacity:1"
           d="m 672.41871,302.62593 c -15.34953,0.0451 -30.17804,8.89156 -37.88084,22.10892 -7.23759,12.02725 -8.24802,27.50185 -2.66094,40.37604 5.56038,13.44615 18.12851,23.56706 32.34458,26.4771 16.34473,3.59472 34.31261,-3.15384 44.46534,-16.40898 8.88973,-11.19239 11.81868,-26.76051 7.6386,-40.42461 -3.71012,-12.6613 -13.25419,-23.47769 -25.46331,-28.53982 -5.81214,-2.47327 -12.1134,-3.81274 -18.44343,-3.58865 z m 0.86917,19.76178 c 9.60633,-0.16942 19.03168,5.95389 22.83485,14.73994 3.78646,8.53538 2.53702,19.13688 -3.63734,26.2318 -4.55484,5.56773 -11.73427,9.04481 -18.93436,8.96871 -6.05733,0.2144 -12.08277,-2.21602 -16.66541,-6.10489 -7.61313,-6.48108 -10.59143,-17.76164 -7.17144,-27.15697 2.87617,-8.44359 10.53501,-14.88049 19.30346,-16.30404 1.42152,-0.24575 2.80661,-0.36866 4.27024,-0.37455 z"
           id="path11409" />
      </g>
    </g>
  </g>
</svg>
